<?xml version="1.0" encoding="UTF-8"?>
<svg width="290px" height="269px" viewBox="0 0 290 269" version="1.1" xmlns="http://www.w3.org/2000/svg" xmlns:xlink="http://www.w3.org/1999/xlink">
    <!-- Generator: Sketch 43.2 (39069) - http://www.bohemiancoding.com/sketch -->
    <title>Team Assistance</title>
    <desc>Created with Sketch.</desc>
    <defs>
        <circle id="path-1" cx="75" cy="75" r="75"></circle>
    </defs>
    <g id="Page-1" stroke="none" stroke-width="1" fill="none" fill-rule="evenodd">
        <g id="Services" transform="translate(-623.000000, -377.000000)">
            <g id="Team-Assistance" transform="translate(623.000000, 377.000000)">
                <g id="Group-23">
                    <polyline id="Path-51" stroke="#77C2C7" stroke-width="6" stroke-linecap="round" stroke-linejoin="round" points="30 180 147.5 245 265 179"></polyline>
                    <polyline id="Path-51-Copy" stroke="#77C2C7" stroke-width="6" stroke-linecap="round" stroke-linejoin="round" transform="translate(147.500000, 132.000000) scale(1, -1) translate(-147.500000, -132.000000) " points="30 100 147.5 165 265 99"></polyline>
                    <path d="M145,223.0202 L145,124" id="Path-30" stroke="#77C2C7" stroke-width="6" stroke-linecap="round" stroke-linejoin="round"></path>
                    <circle id="Oval-8" fill="#5EB156" cx="30" cy="179" r="30"></circle>
                    <path d="M42.2972973,179.08823 C36.6756757,173.793684 32.7405405,168.220478 30.9135135,162.925933 L29.9297297,160 L28.9459459,162.925933 C27.1189189,168.220478 23.1837838,173.793684 17.5621622,179.08823 L17,179.64555 L23.1837838,192.045933 L20.2324324,192.045933 L20.2324324,198.315789 L39.7675676,198.315789 L39.7675676,192.045933 L36.8162162,192.045933 L43,179.64555 L42.2972973,179.08823 Z M29.7891892,175.186986 C30.6324324,175.186986 31.1945946,175.883636 31.1945946,176.580287 C31.1945946,177.416268 30.4918919,177.973589 29.7891892,177.973589 C28.9459459,177.973589 28.3837838,177.276938 28.3837838,176.580287 C28.3837838,175.883636 28.9459459,175.186986 29.7891892,175.186986 Z M37.5189189,194.135885 L37.5189189,196.225837 L22.0594595,196.225837 L22.0594595,194.135885 L24.027027,194.135885 L35.5513514,194.135885 L37.5189189,194.135885 Z M34.2864865,192.045933 L25.4324324,192.045933 L19.3891892,180.063541 C23.4648649,176.162297 26.5567568,172.121722 28.8054054,168.220478 L28.8054054,173.375694 C27.4,173.793684 26.2756757,175.186986 26.2756757,176.719617 C26.2756757,178.670239 27.8216216,180.202871 29.7891892,180.202871 C31.7567568,180.202871 33.3027027,178.670239 33.3027027,176.719617 C33.3027027,175.186986 32.1783784,173.793684 30.772973,173.375694 L30.772973,168.220478 C32.8810811,172.261053 36.1135135,176.162297 40.1891892,180.063541 L34.2864865,192.045933 Z" id="Shape" stroke="#FFFFFF" stroke-width="0.5" fill="#FFFFFF" fill-rule="nonzero"></path>
                    <circle id="Oval-8-Copy-2" fill="#FF7575" cx="260" cy="179" r="30"></circle>
                    <path d="M255.323343,162.424987 C248.532523,162.424987 243,167.957433 243,174.748342 C243,181.539213 248.532523,187.071736 255.323343,187.071736 C257.487358,187.071736 259.529015,186.516558 261.29914,185.531281 L270.35572,194.587903 C271.67186,195.904043 273.846755,195.904043 275.162895,194.587903 C276.479035,193.271763 276.479035,191.096868 275.162895,189.780728 L266.106315,180.724106 C267.09155,178.953981 267.646727,176.912311 267.646727,174.748342 C267.646727,167.957433 262.114205,162.424987 255.323343,162.424987 L255.323343,162.424987 Z M255.323343,164.974647 C260.73627,164.974647 265.097067,169.335389 265.097067,174.748342 C265.097067,180.161236 260.73627,184.522076 255.323343,184.522076 C249.910415,184.522076 245.54966,180.161236 245.54966,174.748342 C245.54966,169.335389 249.910415,164.974647 255.323343,164.974647 L255.323343,164.974647 Z M264.605725,182.835548 L273.3569,191.573463 C273.705442,191.921963 273.705442,192.433366 273.3569,192.781908 C273.0084,193.130408 272.496955,193.130408 272.148497,192.781908 L263.41054,184.030733 C263.835795,183.659708 264.2347,183.260761 264.605725,182.835548 L264.605725,182.835548 Z" id="Shape" stroke="#FFFFFF" stroke-width="0.5" fill="#FFFFFF" fill-rule="nonzero"></path>
                    <circle id="Oval-8-Copy" fill="#6475B3" cx="145" cy="239" r="30"></circle>
                    <g id="Group-22" transform="translate(125.000000, 225.000000)" fill-rule="nonzero" fill="#FFFFFF">
                        <polygon id="Shape" points="30.8235294 6.1232 28.2352941 8.71143529 33.8823529 14.1232 28.2352941 19.7702588 30.8235294 22.3584941 39.0588235 14.1232"></polygon>
                        <polygon id="Shape" points="8 6.1232 0 14.1232 8 22.3584941 10.5882353 19.7702588 4.94117647 14.1232 10.5882353 8.71143529"></polygon>
                        <rect id="Rectangle-path" transform="translate(19.425859, 14.278541) rotate(-153.665566) translate(-19.425859, -14.278541) " x="17.6611923" y="-0.779946537" width="3.52933306" height="30.1169754"></rect>
                    </g>
                    <g id="Path-13" transform="translate(70.000000, 0.000000)">
                        <mask id="mask-2" fill="white">
                            <use xlink:href="#path-1"></use>
                        </mask>
                        <use id="Mask" fill="#77C2C7" xlink:href="#path-1"></use>
                        <g id="Group-21" mask="url(#mask-2)">
                            <g transform="translate(18.000000, 27.000000)">
                                <g id="Group-20">
                                    <path d="M0.882352941,86.5839325 C0.882352941,86.5839325 -1.38143372,32.4475524 22.9429191,32.4475524 C47.2672719,32.4475524 44.9209159,86.5839325 44.9209159,86.5839325 L0.882352941,86.5839325 Z" id="Path-13" fill="#FFFFFF"></path>
                                    <ellipse id="Oval-2" fill="#FFFFFF" cx="23.1748926" cy="16.4488742" rx="17.0786359" ry="16.4488742"></ellipse>
                                </g>
                                <g id="Group-20-Copy-2" transform="translate(70.000000, 0.000000)">
                                    <path d="M0.882352941,86.5839325 C0.882352941,86.5839325 -1.38143372,32.4475524 22.9429191,32.4475524 C47.2672719,32.4475524 44.9209159,86.5839325 44.9209159,86.5839325 L0.882352941,86.5839325 Z" id="Path-13" fill="#FFFFFF"></path>
                                    <ellipse id="Oval-2" fill="#FFFFFF" cx="23.1748926" cy="16.4488742" rx="17.0786359" ry="16.4488742"></ellipse>
                                </g>
                                <g id="Group-20-Copy" transform="translate(35.000000, 17.000000)">
                                    <path d="M0.882352941,86.5839325 C0.882352941,86.5839325 -1.38143372,32.4475524 22.9429191,32.4475524 C47.2672719,32.4475524 44.9209159,86.5839325 44.9209159,86.5839325 L0.882352941,86.5839325 Z" id="Path-13" fill="#E2E2E2"></path>
                                    <ellipse id="Oval-2" fill="#E2E2E2" cx="23.1748926" cy="16.4488742" rx="17.0786359" ry="16.4488742"></ellipse>
                                </g>
                            </g>
                        </g>
                    </g>
                    <g id="noun_945377" transform="translate(243.000000, 162.000000)"></g>
                </g>
            </g>
        </g>
    </g>
</svg>