<?xml version="1.0" encoding="utf-8"?>
<!-- Generator: Adobe Illustrator 21.0.2, SVG Export Plug-In . SVG Version: 6.00 Build 0)  -->
<svg version="1.1" id="Layer_1" xmlns="http://www.w3.org/2000/svg" xmlns:xlink="http://www.w3.org/1999/xlink" x="0px" y="0px"
	 viewBox="0 0 400 325" style="enable-background:new 0 0 400 325;" xml:space="preserve">
<style type="text/css">
	.st0{fill:none;stroke:#83A5C2;stroke-width:6;stroke-linecap:round;}
	.st1{fill:#83A5C2;}
	.st2{fill:none;stroke:#4368C8;stroke-width:4;}
	.st3{fill:#FFFFFF;stroke:#4368C8;stroke-width:4;}
	.st4{fill:#FFFFFF;}
	.st5{enable-background:new    ;}
	.st6{fill:none;stroke:#B9D0E4;stroke-width:4;}
	.st7{fill:none;stroke:#70B876;stroke-width:4;stroke-linecap:round;stroke-linejoin:round;}
	.st8{fill:none;stroke:#70B876;stroke-width:4;}
	.st9{fill:#EE6262;stroke:#EE6262;stroke-width:2;}
	.st10{fill:#169CA6;}
</style>
<title>Home Page &gt; Design Solutions</title>
<desc>Created with Sketch.</desc>
<g id="Page-1">
	<g id="Home-Page-_x3E_-Design-Solutions">
		<g id="Group-26" transform="translate(68.000000, 25.000000)">
			<g id="Group-30" transform="translate(19.000000, 11.000000)">
				<g id="Group-29" transform="translate(152.000000, 17.000000)">
					<path id="Oval-3-Copy-2" class="st0" d="M46.6,38.2C36,20,17.3,5.1,3,0"/>
					<polygon id="Triangle-2-Copy-3" class="st1" points="53.4,51.8 36.5,39.6 55.7,31 					"/>
				</g>
				
					<g id="Group-29-Copy" transform="translate(183.666665, 181.276058) rotate(-278.000000) translate(-183.666665, -181.276058) translate(150.666665, 151.276058)">
					<path id="Oval-3-Copy-3" class="st0" d="M48.6,38.2C38,20,19.3,5.1,5,0"/>
					<polygon id="Triangle-2-Copy-4" class="st1" points="55.4,51.8 38.5,39.6 57.7,31 					"/>
				</g>
				
					<g id="Group-29-Copy-2" transform="translate(37.348378, 173.107083) rotate(-170.000000) translate(-37.348378, -173.107083) translate(5.348378, 142.607083)">
					<path id="Oval-3-Copy-4" class="st0" d="M47.6,38.2C37,20,18.3,5.1,4,0"/>
					<polygon id="Triangle-2-Copy-5" class="st1" points="53.5,51.9 36.5,39.8 55.7,31.2 					"/>
				</g>
				
					<g id="Group-29-Copy-3" transform="translate(53.955287, 35.497500) rotate(-84.000000) translate(-53.955287, -35.497500) translate(21.455287, 5.497500)">
					<path id="Oval-3" class="st0" d="M48.6,38.2C38,20,19.3,5.1,5,0"/>
					<polygon id="Triangle-2-Copy" class="st1" points="54.5,51.9 37.5,39.8 56.7,31.2 					"/>
				</g>
			</g>
			<g id="square-copy">
				<g id="Group-22" transform="translate(0.000000, 75.000000)">
					
						<g id="Group-19" transform="translate(33.453235, 40.825472) rotate(-25.000000) translate(-33.453235, -40.825472) translate(13.953235, 5.825472)">
						<path id="Rectangle-5" class="st2" d="M18.5,35.7h1.2c2.2,0,4,1.8,4,4l0,26.3c0,2.2-1.8,4-4,4h-1.2c-2.2,0-4-1.8-4-4l0-26.3
							C14.5,37.5,16.3,35.7,18.5,35.7z"/>
						
							<ellipse id="Oval-2" transform="matrix(0.9063 -0.4226 0.4226 0.9063 -6.2992 9.8878)" class="st3" cx="19.2" cy="19.2" rx="19.2" ry="19.2"/>
					</g>
					<g id="Group-20" transform="translate(1.000000, 49.000000)">
						<rect id="Rectangle-14" y="2" class="st4" width="71" height="16"/>
						<g class="st5">
							<path class="st1" d="M6.4,14.8c-0.2-0.2-0.2-0.4-0.2-0.7V5.3c0-0.3,0.1-0.5,0.3-0.7s0.4-0.3,0.7-0.3c0.3,0,0.5,0.1,0.7,0.3
								C8,4.8,8.1,5,8.1,5.3v8.1h4.2c0.6,0,0.9,0.3,0.9,0.8S12.9,15,12.3,15H7.1C6.8,15,6.5,14.9,6.4,14.8z"/>
							<path class="st1" d="M17.7,14.8c-0.2-0.2-0.2-0.4-0.2-0.7V5.3c0-0.3,0.1-0.5,0.2-0.7s0.4-0.2,0.7-0.2h5.4
								c0.3,0,0.5,0.1,0.7,0.2c0.2,0.1,0.2,0.3,0.2,0.6c0,0.2-0.1,0.4-0.2,0.6C24.3,5.9,24.1,6,23.8,6h-4.5v2.9h4.2
								c0.3,0,0.5,0.1,0.7,0.2c0.2,0.1,0.2,0.3,0.2,0.6c0,0.2-0.1,0.4-0.2,0.6c-0.2,0.1-0.4,0.2-0.7,0.2h-4.2v3.1h4.5
								c0.3,0,0.5,0.1,0.7,0.2c0.2,0.1,0.2,0.3,0.2,0.6c0,0.2-0.1,0.4-0.2,0.6c-0.2,0.1-0.4,0.2-0.7,0.2h-5.4
								C18.1,15,17.9,14.9,17.7,14.8z"/>
							<path class="st1" d="M38.8,14.2c0,0.2-0.1,0.4-0.3,0.6s-0.4,0.2-0.6,0.2c-0.2,0-0.3,0-0.4-0.1c-0.1-0.1-0.3-0.2-0.3-0.4
								l-0.9-2h-5.3l-0.9,2c-0.1,0.2-0.2,0.3-0.3,0.4s-0.3,0.1-0.5,0.1c-0.2,0-0.4-0.1-0.6-0.2c-0.2-0.2-0.3-0.4-0.3-0.6
								c0-0.1,0-0.3,0.1-0.4L32.5,5c0.1-0.2,0.2-0.4,0.4-0.5c0.2-0.1,0.4-0.2,0.6-0.2s0.4,0.1,0.6,0.2c0.2,0.1,0.3,0.3,0.4,0.5
								l4.2,8.9C38.8,14,38.8,14.1,38.8,14.2z M31.6,11h4l-2-4.5L31.6,11z"/>
							<path class="st1" d="M51.9,14.3c0,0.2-0.1,0.4-0.3,0.6c-0.2,0.2-0.4,0.2-0.7,0.2c-0.2,0-0.3,0-0.5-0.1
								c-0.1-0.1-0.3-0.2-0.4-0.3l-2-3c-0.2-0.3-0.4-0.5-0.6-0.7s-0.5-0.2-0.9-0.2h-1.5v3.4c0,0.3-0.1,0.5-0.3,0.7
								c-0.2,0.2-0.4,0.3-0.7,0.3s-0.5-0.1-0.7-0.3s-0.3-0.4-0.3-0.7V5.3c0-0.3,0.1-0.5,0.2-0.7s0.4-0.2,0.7-0.2h3.8
								c1.2,0,2.1,0.3,2.7,0.8c0.6,0.5,0.9,1.3,0.9,2.3c0,0.8-0.2,1.5-0.7,2c-0.5,0.5-1.1,0.9-2,1c0.3,0.1,0.5,0.2,0.8,0.4
								c0.2,0.2,0.4,0.4,0.6,0.8l1.4,2.1C51.8,14,51.9,14.1,51.9,14.3z M49.3,8.9c0.3-0.3,0.5-0.7,0.5-1.3c0-0.6-0.2-1-0.5-1.3
								c-0.3-0.3-0.9-0.4-1.6-0.4h-2.5v3.3h2.5C48.4,9.3,48.9,9.1,49.3,8.9z"/>
							<path class="st1" d="M65.4,4.6c0.2,0.2,0.2,0.4,0.2,0.7v8.8c0,0.3-0.1,0.5-0.3,0.7c-0.2,0.2-0.4,0.3-0.7,0.3
								c-0.3,0-0.6-0.1-0.7-0.3l-5.5-7.1v6.5c0,0.3-0.1,0.5-0.2,0.7c-0.2,0.2-0.4,0.3-0.7,0.3c-0.3,0-0.5-0.1-0.7-0.3
								c-0.2-0.2-0.2-0.4-0.2-0.7V5.3c0-0.3,0.1-0.5,0.3-0.7c0.2-0.2,0.4-0.3,0.7-0.3c0.3,0,0.5,0.1,0.7,0.3l5.5,7.1V5.3
								c0-0.3,0.1-0.5,0.2-0.7s0.4-0.3,0.7-0.3C65,4.3,65.2,4.4,65.4,4.6z"/>
						</g>
					</g>
				</g>
				<g id="Group-18" transform="translate(199.000000, 84.000000)">
					<g id="Group-25" transform="translate(12.000000, 3.000000)">
						<path id="Path-4" class="st6" d="M21.5,19.4L30,23"/>
					</g>
					<g id="Group-25-Copy" transform="translate(9.000000, 0.000000)">
						<path id="Combined-Shape" class="st7" d="M23.3,10.4l11.6,4.9L16.8,58L5.2,53.1L23.3,10.4z M25.9,4.2c0.9-2,3.2-3,5.2-2.1
							l4.2,1.8c2,0.9,3,3.2,2.1,5.2l-2.4,5.7L23.5,9.9L25.9,4.2z M5.9,67.4L5.2,53.1L16.8,58L5.9,67.4z"/>
						<path id="Path-4_1_" class="st8" d="M21.5,19.4L30,23"/>
					</g>
					<g id="Group-21" transform="translate(0.000000, 33.000000)">
						<rect id="Rectangle-16" y="2" class="st4" width="66" height="16"/>
						<g class="st5">
							<path class="st1" d="M11.3,10.5c0.3,0.5,0.5,1,0.5,1.7c0,0.9-0.3,1.6-1,2.1C10.2,14.7,9.3,15,8.2,15H4.3
								c-0.3,0-0.5-0.1-0.7-0.2c-0.2-0.2-0.2-0.4-0.2-0.7V5.3c0-0.3,0.1-0.5,0.2-0.7s0.4-0.2,0.7-0.2h3.7c1.1,0,2,0.2,2.6,0.7
								c0.6,0.5,0.9,1.2,0.9,2c0,0.6-0.1,1-0.4,1.5C10.8,9,10.4,9.4,9.9,9.5C10.5,9.7,11,10,11.3,10.5z M5.3,8.9h2.4
								c1.3,0,2-0.5,2-1.5c0-0.5-0.2-0.9-0.5-1.1S8.4,5.9,7.7,5.9H5.3V8.9z M9.5,13.1C9.9,12.9,10,12.5,10,12S9.8,11,9.5,10.8
								c-0.3-0.3-0.8-0.4-1.5-0.4H5.3v3.1H8C8.7,13.5,9.2,13.4,9.5,13.1z"/>
							<path class="st1" d="M17.7,14c-0.8-0.8-1.1-1.8-1.1-3.3V5.3c0-0.3,0.1-0.5,0.3-0.7s0.4-0.3,0.7-0.3c0.3,0,0.5,0.1,0.7,0.3
								s0.3,0.4,0.3,0.7v5.5c0,0.9,0.2,1.6,0.6,2.1s1.1,0.7,1.9,0.7c0.8,0,1.4-0.2,1.9-0.7c0.4-0.5,0.6-1.2,0.6-2.1V5.3
								c0-0.3,0.1-0.5,0.3-0.7s0.4-0.3,0.7-0.3c0.3,0,0.5,0.1,0.7,0.3s0.3,0.4,0.3,0.7v5.4c0,1.4-0.4,2.5-1.1,3.3s-1.8,1.1-3.3,1.1
								C19.6,15.1,18.5,14.8,17.7,14z"/>
							<path class="st1" d="M30.9,14.8c-0.2-0.2-0.3-0.4-0.3-0.7V5.3c0-0.3,0.1-0.5,0.3-0.7c0.2-0.2,0.4-0.3,0.7-0.3
								c0.3,0,0.5,0.1,0.7,0.3c0.2,0.2,0.3,0.4,0.3,0.7v8.8c0,0.3-0.1,0.5-0.3,0.7c-0.2,0.2-0.4,0.3-0.7,0.3
								C31.3,15.1,31.1,15,30.9,14.8z"/>
							<path class="st1" d="M38.1,14.8c-0.2-0.2-0.2-0.4-0.2-0.7V5.3c0-0.3,0.1-0.5,0.3-0.7c0.2-0.2,0.4-0.3,0.7-0.3
								c0.3,0,0.5,0.1,0.7,0.3c0.2,0.2,0.3,0.4,0.3,0.7v8.1H44c0.6,0,0.9,0.3,0.9,0.8S44.6,15,44,15h-5.2
								C38.5,15,38.3,14.9,38.1,14.8z"/>
							<path class="st1" d="M49.4,14.8c-0.2-0.2-0.2-0.4-0.2-0.7V5.3c0-0.3,0.1-0.5,0.2-0.7s0.4-0.2,0.7-0.2h3c1.7,0,3.1,0.5,4,1.4
								s1.4,2.2,1.4,3.9c0,1.7-0.5,3-1.4,3.9s-2.3,1.4-4,1.4h-3C49.8,15,49.6,14.9,49.4,14.8z M53,13.4c2.4,0,3.6-1.2,3.6-3.7
								C56.6,7.2,55.4,6,53,6h-1.8v7.4H53z"/>
						</g>
					</g>
				</g>
				<g id="noun_906655" transform="translate(102.000000, 0.000000)">
					<g id="Group">
						<path id="Shape-Copy-2" class="st9" d="M31.5,0C18,0,7,11,7,24.5c0,9.9,6.1,18.9,15.2,22.6v6.5v8.2c0,0.6,0.5,1.2,1.2,1.2h2.3
							v4.7H21V70h4.7H28h7h2.3h5.8v-2.3h-5.8V63h2.3c0.6,0,1.2-0.5,1.2-1.2v-8.2v-6.5C49.9,43.4,56,34.4,56,24.5C56,11,45,0,31.5,0z
							 M38.5,60.7h-2.3c-0.6,0-1.2,0.5-1.2,1.2v5.8h-7V63h4.7v-2.3h-5.8h-2.3v-5.8h14V60.7z M39.3,45.2c-0.5,0.2-0.8,0.6-0.8,1.1
							v6.2h-5.8h-2.3h-5.8v-6.2c0-0.5-0.3-0.9-0.8-1.1C15.1,42,9.3,33.7,9.3,24.5c0-12.2,9.9-22.2,22.2-22.2s22.2,9.9,22.2,22.2
							C53.7,33.7,47.9,42,39.3,45.2z"/>
						<g id="Group-24" transform="translate(0.000000, 18.000000)">
							<rect id="Rectangle-15" y="2" class="st4" width="62" height="16"/>
							<g class="st5">
								<path class="st1" d="M11.6,14.8c-0.2-0.2-0.3-0.4-0.3-0.7V5.3c0-0.3,0.1-0.5,0.3-0.7s0.4-0.3,0.7-0.3c0.3,0,0.5,0.1,0.7,0.3
									c0.2,0.2,0.3,0.4,0.3,0.7v8.8c0,0.3-0.1,0.5-0.3,0.7c-0.2,0.2-0.4,0.3-0.7,0.3C12.1,15.1,11.8,15,11.6,14.8z"/>
								<path class="st1" d="M18.3,14.8c-0.2-0.2-0.2-0.4-0.2-0.7V5.3c0-0.3,0.1-0.5,0.2-0.7s0.4-0.2,0.7-0.2h3c1.7,0,3.1,0.5,4,1.4
									s1.4,2.2,1.4,3.9c0,1.7-0.5,3-1.4,3.9S23.7,15,22,15h-3C18.7,15,18.5,14.9,18.3,14.8z M21.9,13.4c2.4,0,3.6-1.2,3.6-3.7
									c0-2.5-1.2-3.7-3.6-3.7H20v7.4H21.9z"/>
								<path class="st1" d="M32.1,14.8c-0.2-0.2-0.2-0.4-0.2-0.7V5.3c0-0.3,0.1-0.5,0.2-0.7s0.4-0.2,0.7-0.2h5.4
									c0.3,0,0.5,0.1,0.7,0.2c0.2,0.1,0.2,0.3,0.2,0.6c0,0.2-0.1,0.4-0.2,0.6C38.8,5.9,38.5,6,38.2,6h-4.5v2.9h4.2
									c0.3,0,0.5,0.1,0.7,0.2c0.2,0.1,0.2,0.3,0.2,0.6c0,0.2-0.1,0.4-0.2,0.6c-0.2,0.1-0.4,0.2-0.7,0.2h-4.2v3.1h4.5
									c0.3,0,0.5,0.1,0.7,0.2c0.2,0.1,0.2,0.3,0.2,0.6c0,0.2-0.1,0.4-0.2,0.6c-0.2,0.1-0.4,0.2-0.7,0.2h-5.4
									C32.5,15,32.3,14.9,32.1,14.8z"/>
								<path class="st1" d="M52.7,14.2c0,0.2-0.1,0.4-0.3,0.6c-0.2,0.2-0.4,0.2-0.6,0.2c-0.2,0-0.3,0-0.5-0.1s-0.2-0.2-0.3-0.4
									l-0.9-2h-5.3l-0.9,2c-0.1,0.2-0.2,0.3-0.3,0.4c-0.1,0.1-0.3,0.1-0.5,0.1c-0.2,0-0.4-0.1-0.6-0.2c-0.2-0.2-0.3-0.4-0.3-0.6
									c0-0.1,0-0.3,0.1-0.4L46.5,5c0.1-0.2,0.2-0.4,0.4-0.5c0.2-0.1,0.4-0.2,0.6-0.2s0.4,0.1,0.6,0.2c0.2,0.1,0.3,0.3,0.4,0.5
									l4.2,8.9C52.7,14,52.7,14.1,52.7,14.2z M45.5,11h4l-2-4.5L45.5,11z"/>
							</g>
						</g>
					</g>
				</g>
				<g id="Group-23" transform="translate(82.000000, 172.000000)">
					<path id="Shape-Copy-3" class="st10" d="M48.8,1.8C43.1,7.5,37.5,17,34.8,27.9c-1.1,4.3-1.7,8.9-1.7,13.4
						c-1.3,1.1-2.6,2.1-3.7,3.2c-3.7,3.5-6.1,6.7-7.4,10.2c-1.7,4.7-1.5,9.7-0.6,15.8c0.1,0.6,0.5,1.1,1,1.3c0.5,0.3,1.1,0.2,1.7,0
						l16.1-8.7l19.4,0l16.1,8.7c0.5,0.3,1.1,0.3,1.6,0c0.5-0.3,0.9-0.8,1-1.3c1-6.1,1.2-11.1-0.6-15.8c-1.7-4.6-5.2-8.7-11-13.4
						c0-12.9-4.9-25.3-10.8-33.9c-0.4-0.5-1-0.8-1.6-0.8c-0.6,0.1-1.2,0.4-1.5,1c-0.3,0.6-0.2,1.3,0.1,1.8c8.4,12.1,14.5,33,5.9,50
						l-18,0c-5-9.8-5.1-20.9-2.7-30.8c2.5-10.3,7.9-19.4,13-24.5c0.5-0.5,0.6-1.1,0.5-1.7c-0.2-0.6-0.7-1.1-1.3-1.3
						C49.9,1.1,49.2,1.3,48.8,1.8z M44.3,24c-3.1,3.1-3.1,8.3,0,11.4c3.1,3.1,8.3,3.1,11.4,0c3.1-3.1,3.1-8.3,0-11.4
						C52.6,20.8,47.5,20.8,44.3,24z M46.8,26.5c1.8-1.8,4.6-1.8,6.3,0c1.8,1.8,1.8,4.6,0,6.3c-1.8,1.8-4.6,1.8-6.3,0
						C45.1,31.1,45.1,28.3,46.8,26.5z M30.4,48.7c0.9-0.9,1.9-1.8,3-2.8c0.5,5,1.7,10,4.1,14.8l-12.6,6.8c-0.5-4.5-0.6-8.2,0.6-11.4
						C26.4,53.6,27.9,51.3,30.4,48.7z M41,70.5c-0.2,0.3-0.4,0.7-0.4,1.1v7.6c0,0.6,0.3,1.3,0.9,1.6c0.6,0.3,1.3,0.3,1.8,0
						c0.6-0.3,0.9-0.9,0.9-1.6v-7.6c0-0.8-0.5-1.5-1.2-1.8S41.4,69.8,41,70.5L41,70.5z M66.7,45.9c4.3,3.7,6.6,6.8,7.8,10.1
						c1.2,3.2,1.1,6.9,0.6,11.4l-12.6-6.8C64.9,55.9,66.2,50.9,66.7,45.9z M48.6,69.2c-0.2,0.3-0.4,0.7-0.4,1.1l0,15.2
						c0,0.6,0.3,1.3,0.9,1.6c0.6,0.3,1.3,0.3,1.8,0c0.6-0.3,0.9-0.9,0.9-1.6l0-15.2c0-0.8-0.5-1.5-1.2-1.8
						C49.9,68.3,49,68.6,48.6,69.2z M56.2,70.5c-0.2,0.3-0.4,0.7-0.4,1.1v7.6c0,0.6,0.3,1.3,0.9,1.6c0.6,0.3,1.3,0.3,1.8,0
						c0.6-0.3,0.9-0.9,0.9-1.6l0-7.6c0-0.8-0.5-1.5-1.2-1.8C57.5,69.6,56.7,69.8,56.2,70.5z"/>
					<rect id="Rectangle-17" x="8" y="41" class="st4" width="86" height="16"/>
					<g class="st5">
						<path class="st1" d="M12.7,54.8c-0.2-0.2-0.2-0.4-0.2-0.7v-8.8c0-0.3,0.1-0.5,0.3-0.7s0.4-0.3,0.7-0.3c0.3,0,0.5,0.1,0.7,0.3
							c0.2,0.2,0.3,0.4,0.3,0.7v8.1h4.2c0.6,0,0.9,0.3,0.9,0.8S19.2,55,18.6,55h-5.2C13.1,55,12.9,54.9,12.7,54.8z"/>
						<path class="st1" d="M33.4,54.2c0,0.2-0.1,0.4-0.3,0.6s-0.4,0.2-0.6,0.2c-0.2,0-0.3,0-0.4-0.1c-0.1-0.1-0.3-0.2-0.3-0.4
							l-0.9-2h-5.3l-0.9,2c-0.1,0.2-0.2,0.3-0.3,0.4s-0.3,0.1-0.5,0.1c-0.2,0-0.4-0.1-0.6-0.2c-0.2-0.2-0.3-0.4-0.3-0.6
							c0-0.1,0-0.3,0.1-0.4l4.1-8.9c0.1-0.2,0.2-0.4,0.4-0.5c0.2-0.1,0.4-0.2,0.6-0.2s0.4,0.1,0.6,0.2c0.2,0.1,0.3,0.3,0.4,0.5
							l4.2,8.9C33.4,54,33.4,54.1,33.4,54.2z M26.2,51h4l-2-4.5L26.2,51z"/>
						<path class="st1" d="M38.8,54c-0.8-0.8-1.1-1.8-1.1-3.3v-5.4c0-0.3,0.1-0.5,0.3-0.7s0.4-0.3,0.7-0.3s0.5,0.1,0.7,0.3
							s0.3,0.4,0.3,0.7v5.5c0,0.9,0.2,1.6,0.6,2.1c0.4,0.5,1.1,0.7,1.9,0.7c0.8,0,1.4-0.2,1.9-0.7c0.4-0.5,0.6-1.2,0.6-2.1v-5.5
							c0-0.3,0.1-0.5,0.3-0.7s0.4-0.3,0.7-0.3c0.3,0,0.5,0.1,0.7,0.3c0.2,0.2,0.3,0.4,0.3,0.7v5.4c0,1.4-0.4,2.5-1.1,3.3
							s-1.8,1.1-3.3,1.1C40.7,55.1,39.6,54.8,38.8,54z"/>
						<path class="st1" d="M60.4,44.6c0.2,0.2,0.2,0.4,0.2,0.7v8.8c0,0.3-0.1,0.5-0.3,0.7c-0.2,0.2-0.4,0.3-0.7,0.3
							c-0.3,0-0.6-0.1-0.7-0.3l-5.5-7.1v6.5c0,0.3-0.1,0.5-0.2,0.7c-0.2,0.2-0.4,0.3-0.7,0.3c-0.3,0-0.5-0.1-0.7-0.3
							c-0.2-0.2-0.2-0.4-0.2-0.7v-8.8c0-0.3,0.1-0.5,0.3-0.7s0.4-0.3,0.7-0.3c0.3,0,0.5,0.1,0.7,0.3l5.5,7.1v-6.5
							c0-0.3,0.1-0.5,0.2-0.7s0.4-0.3,0.7-0.3C60.1,44.3,60.3,44.4,60.4,44.6z"/>
						<path class="st1" d="M68,54.5c-0.8-0.4-1.4-1.1-1.8-1.9c-0.4-0.8-0.6-1.8-0.6-2.9s0.2-2.1,0.6-2.9c0.4-0.8,1-1.4,1.8-1.9
							c0.8-0.4,1.7-0.7,2.7-0.7c0.7,0,1.3,0.1,1.9,0.3c0.6,0.2,1.1,0.5,1.5,0.8c0.1,0.1,0.2,0.2,0.3,0.3c0,0.1,0.1,0.2,0.1,0.4
							c0,0.2-0.1,0.4-0.2,0.6s-0.3,0.2-0.4,0.2c-0.2,0-0.4-0.1-0.6-0.2c-0.4-0.3-0.8-0.5-1.2-0.7s-0.8-0.2-1.2-0.2
							c-1,0-1.8,0.3-2.4,1c-0.5,0.7-0.8,1.6-0.8,2.9c0,1.3,0.3,2.2,0.8,2.9c0.5,0.7,1.3,1,2.4,1c0.4,0,0.8-0.1,1.2-0.2
							c0.4-0.1,0.8-0.4,1.2-0.7c0.1-0.1,0.2-0.1,0.3-0.2c0.1,0,0.2-0.1,0.3-0.1c0.2,0,0.3,0.1,0.4,0.2c0.1,0.2,0.2,0.3,0.2,0.6
							c0,0.1,0,0.3-0.1,0.4c-0.1,0.1-0.1,0.2-0.3,0.3c-0.5,0.4-1,0.7-1.5,0.8c-0.6,0.2-1.2,0.3-1.9,0.3C69.7,55.1,68.8,54.9,68,54.5
							z"/>
						<path class="st1" d="M88.1,44.6c0.2,0.2,0.3,0.4,0.3,0.7v8.8c0,0.3-0.1,0.5-0.3,0.7c-0.2,0.2-0.4,0.3-0.7,0.3
							c-0.3,0-0.5-0.1-0.7-0.3c-0.2-0.2-0.3-0.4-0.3-0.7v-3.7H81v3.7c0,0.3-0.1,0.5-0.3,0.7c-0.2,0.2-0.4,0.3-0.7,0.3
							c-0.3,0-0.5-0.1-0.7-0.3c-0.2-0.2-0.3-0.4-0.3-0.7v-8.8c0-0.3,0.1-0.5,0.3-0.7s0.4-0.3,0.7-0.3s0.5,0.1,0.7,0.3S81,45,81,45.3
							v3.5h5.4v-3.5c0-0.3,0.1-0.5,0.3-0.7s0.4-0.3,0.7-0.3S87.9,44.4,88.1,44.6z"/>
					</g>
				</g>
			</g>
		</g>
	</g>
</g>
</svg>
