<?xml version="1.0" encoding="UTF-8"?>
<svg width="308px" height="285px" viewBox="0 0 308 285" version="1.1" xmlns="http://www.w3.org/2000/svg" xmlns:xlink="http://www.w3.org/1999/xlink">
    <!-- Generator: Sketch 43.2 (39069) - http://www.bohemiancoding.com/sketch -->
    <title>Documentation</title>
    <desc>Created with Sketch.</desc>
    <defs>
        <path d="M29.0803016,3.10281284 C28.8932402,0.342947263 30.8570546,-1.16222498 33.4631541,-0.260277361 L69.1345859,12.0852845 C71.7422299,12.9877667 73.9953431,15.9502628 74.1671755,18.7041365 L78.7999241,92.9509198 C78.9717026,95.7039287 77.0257524,97.1222798 74.4446962,96.1154526 L38.9901049,82.2852041 C36.4130005,81.2799183 34.1730886,78.2407504 33.98514,75.4677946 L29.0803016,3.10281284 Z" id="path-1"></path>
        <path d="M29.0803016,3.10281284 C28.8932402,0.342947263 30.8570546,-1.16222498 33.4631541,-0.260277361 L69.1345859,12.0852845 C71.7422299,12.9877667 73.9953431,15.9502628 74.1671755,18.7041365 L78.7999241,92.9509198 C78.9717026,95.7039287 77.0257524,97.1222798 74.4446962,96.1154526 L38.9901049,82.2852041 C36.4130005,81.2799183 34.1730886,78.2407504 33.98514,75.4677946 L29.0803016,3.10281284 Z" id="path-2"></path>
    </defs>
    <g id="Page-1" stroke="none" stroke-width="1" fill="none" fill-rule="evenodd">
        <g id="Services" transform="translate(-87.000000, -83.000000)">
            <g id="Documentation" transform="translate(87.000000, 85.000000)">
                <g id="Clipboard" transform="translate(0.000000, 98.333333)">
                    <polygon id="Path-45" fill="#77C2C7" points="37.3333333 52 0 77.3333333 174.666667 177.333333 282.666667 102.666667 112 0"></polygon>
                    <polygon id="Path-45-Copy" fill="#FFFFFF" points="24 76.5714286 173.232704 161.333333 260 102.666667 113.63522 16"></polygon>
                    <path d="M26.6666667,58.6666667 L41.3333333,70.6666667 L110.666667,22.6666667 L94.6437653,11.7547763 L81.3333333,21.3333333 L73.3333333,14.6666667 C72,13.3333333 66.9433413,14.3269179 64,16 L40,32 C37.0518393,34.0971347 33.3333333,38.5440548 37.3333333,41.2107215 L44,46.6666667 L26.6666667,58.6666667 Z" id="Combined-Shape" fill="#5EB156"></path>
                    <g id="Group-9" transform="translate(60.000000, 38.666667)" stroke-width="3" stroke-linecap="round">
                        <polygon id="Path-46" stroke="#FF7575" fill="#FF7575" stroke-linejoin="round" points="0 42.6666667 20 54.6666667 40 41.3333333 20 29.3333333"></polygon>
                        <path d="M29.3333333,26.6666667 L68,0" id="Path-47" stroke="#D8D8D8"></path>
                        <path d="M37.3333333,32 L59.5213412,17.2079948" id="Path-47-Copy" stroke="#D8D8D8"></path>
                    </g>
                    <g id="Group-9-Copy" transform="translate(97.333333, 61.333333)" stroke-width="3" stroke-linecap="round">
                        <polygon id="Path-46" stroke="#FF7575" fill="#FF7575" stroke-linejoin="round" points="0 42.6666667 20 54.6666667 40 41.3333333 20 29.3333333"></polygon>
                        <path d="M29.3333333,26.6666667 L68,0" id="Path-47" stroke="#D8D8D8"></path>
                        <path d="M37.3333333,32 L59.5213412,17.2079948" id="Path-47-Copy" stroke="#D8D8D8"></path>
                    </g>
                    <g id="Group-9-Copy-2" transform="translate(137.333333, 84.000000)" stroke-width="3" stroke-linecap="round">
                        <polygon id="Path-46" stroke="#FF7575" fill="#FF7575" stroke-linejoin="round" points="0 42.6666667 20 54.6666667 40 41.3333333 20 29.3333333"></polygon>
                        <path d="M29.3333333,26.6666667 L68,0" id="Path-47" stroke="#D8D8D8"></path>
                        <path d="M37.3333333,32 L59.5213412,17.2079948" id="Path-47-Copy" stroke="#D8D8D8"></path>
                    </g>
                    <polygon id="Path-6" fill="#448F95" points="0 77.3333333 0 84 174.666667 184 174.666667 177.333333"></polygon>
                    <polygon id="Path-7" fill="#448F95" points="174.666667 184 282.666667 109.333333 282.666667 102.666667 174.666667 177.333333"></polygon>
                </g>
                <g id="Paper-2" transform="translate(4.000000, 46.333333)">
                    <polygon id="Path-45-Copy-2" stroke="#448F95" stroke-width="4" fill="#FFFFFF" stroke-linecap="round" stroke-linejoin="round" points="37.3333333 52 0 77.3333333 174.666667 177.333333 282.666667 102.666667 112 0"></polygon>
                    <polygon id="Path-48" fill="#77C2C7" points="21.3333333 77.3333333 54.6666667 97.3333333 148 32 113.333333 12"></polygon>
                    <polygon id="Path-48-Copy" fill="#77C2C7" points="64 102.666667 97.3333333 122.666667 190.666667 57.3333333 156 37.3333333"></polygon>
                    <path d="M110.666667,128 L200.173217,65.2118228" id="Path-49" stroke="#77C2C7" stroke-width="4" stroke-linecap="round"></path>
                    <path d="M122.666667,134.666667 L212.173217,71.8784895" id="Path-49-Copy" stroke="#77C2C7" stroke-width="4" stroke-linecap="round"></path>
                    <path d="M136,141.333333 L225.50655,78.5451561" id="Path-49-Copy-3" stroke="#77C2C7" stroke-width="4" stroke-linecap="round"></path>
                    <path d="M146.666667,149.333333 L236.173217,86.5451561" id="Path-49-Copy-2" stroke="#77C2C7" stroke-width="4" stroke-linecap="round"></path>
                    <path d="M158.666667,156 L248.173217,93.2118228" id="Path-49-Copy-5" stroke="#77C2C7" stroke-width="4" stroke-linecap="round"></path>
                    <path d="M170.666667,162.666667 L225.243832,124.381193" id="Path-49-Copy-6" stroke="#77C2C7" stroke-width="4" stroke-linecap="round"></path>
                </g>
                <g id="Paper-3" transform="translate(23.333333, 0.000000)">
                    <polygon id="Path-45-Copy-2" stroke="#448F95" stroke-width="4" fill="#FFFFFF" stroke-linecap="round" stroke-linejoin="round" points="37.3333333 52 0 77.3333333 174.666667 177.333333 282.666667 102.666667 112 0"></polygon>
                    <g id="Group-10" transform="translate(74.666667, 4.000000)">
                        <g id="Rectangle-9" transform="translate(53.943296, 47.939519) rotate(-55.000000) translate(-53.943296, -47.939519) ">
                            <use fill="#FFFFFF" fill-rule="evenodd" xlink:href="#path-1"></use>
                            <path stroke="#77C2C7" stroke-width="4" d="M31.0757233,2.96756481 C30.9854429,1.63558643 31.55768,1.19664737 32.809039,1.62973149 L68.4804709,13.9752934 C70.3260128,14.6140189 72.0495009,16.8805592 72.1710575,18.8286876 L76.8038061,93.0754709 C76.8845623,94.3697099 76.3917037,94.7281688 75.1715217,94.2521961 L39.7169304,80.4219476 C37.857092,79.6964554 36.1157718,77.3274079 35.9805617,75.3325465 L31.0757233,2.96756481 L31.0757233,2.96756481 Z"></path>
                        </g>
                        <path d="M56,73.3333333 L92,48" id="Path-2" stroke="#77C2C7" stroke-width="4"></path>
                        <path d="M13.3333333,46.6666667 L49.3333333,21.3333333" id="Path-2-Copy" stroke="#77C2C7" stroke-width="4"></path>
                    </g>
                    <g id="Group-10-Copy-2" transform="translate(29.333333, 36.000000)">
                        <g id="Rectangle-9" transform="translate(53.943296, 47.939519) rotate(-55.000000) translate(-53.943296, -47.939519) ">
                            <use fill="#FFFFFF" fill-rule="evenodd" xlink:href="#path-2"></use>
                            <path stroke="#77C2C7" stroke-width="4" d="M31.0757233,2.96756481 C30.9854429,1.63558643 31.55768,1.19664737 32.809039,1.62973149 L68.4804709,13.9752934 C70.3260128,14.6140189 72.0495009,16.8805592 72.1710575,18.8286876 L76.8038061,93.0754709 C76.8845623,94.3697099 76.3917037,94.7281688 75.1715217,94.2521961 L39.7169304,80.4219476 C37.857092,79.6964554 36.1157718,77.3274079 35.9805617,75.3325465 L31.0757233,2.96756481 L31.0757233,2.96756481 Z"></path>
                        </g>
                        <path d="M56,73.3333333 L92,48" id="Path-2" stroke="#77C2C7" stroke-width="4"></path>
                        <path d="M13.3333333,46.6666667 L49.3333333,21.3333333" id="Path-2-Copy" stroke="#77C2C7" stroke-width="4"></path>
                        <path d="M72,34.6666667 L81.3333333,28" id="Path-5" stroke="#77C2C7" stroke-width="4"></path>
                        <g id="Group-11" transform="translate(26.666667, 29.333333)" fill="#77C2C7">
                            <polygon id="Path-50" points="0 17.7777778 6.66666667 13.3333333 13.3333333 17.7777778 6.66666667 22.2222222"></polygon>
                            <polygon id="Path-50-Copy" points="9.33333333 11.1111111 16 6.66666667 22.6666667 11.1111111 16 15.5555556"></polygon>
                            <polygon id="Path-50-Copy-2" points="18.6666667 4.44444444 25.3333333 0 32 4.44444444 25.3333333 8.88888889"></polygon>
                            <polygon id="Path-50-Copy-5" points="10.6666667 24.4444444 17.3333333 20 24 24.4444444 17.3333333 28.8888889"></polygon>
                            <polygon id="Path-50-Copy-4" points="20 17.7777778 26.6666667 13.3333333 33.3333333 17.7777778 26.6666667 22.2222222"></polygon>
                            <polygon id="Path-50-Copy-3" points="29.3333333 11.1111111 36 6.66666667 42.6666667 11.1111111 36 15.5555556"></polygon>
                            <polygon id="Path-50-Copy-8" points="21.3333333 31.1111111 28 26.6666667 34.6666667 31.1111111 28 35.5555556"></polygon>
                            <polygon id="Path-50-Copy-7" points="30.6666667 24.4444444 37.3333333 20 44 24.4444444 37.3333333 28.8888889"></polygon>
                            <polygon id="Path-50-Copy-6" points="40 17.7777778 46.6666667 13.3333333 53.3333333 17.7777778 46.6666667 22.2222222"></polygon>
                        </g>
                    </g>
                    <g id="Group-13" transform="translate(116.000000, 68.000000)" stroke-linecap="round">
                        <g id="Group-12">
                            <polygon id="Path-46" stroke="#FF7575" stroke-width="3" fill="#FF7575" stroke-linejoin="round" points="0 52.6783626 6.66666667 56.8888889 13.3333333 52.2105263 6.66666667 48"></polygon>
                            <path d="M17.3333333,44 L79.5713699,0.383182059" id="Path-5-Copy-17" stroke="#77C2C7" stroke-width="4"></path>
                        </g>
                        <g id="Group-12-Copy" transform="translate(14.666667, 9.333333)">
                            <polygon id="Path-46" stroke="#FF7575" stroke-width="3" fill="#FF7575" stroke-linejoin="round" points="0 52.6783626 6.66666667 56.8888889 13.3333333 52.2105263 6.66666667 48"></polygon>
                            <path d="M17.3333333,44 L79.5713699,0.383182059" id="Path-5-Copy-17" stroke="#77C2C7" stroke-width="4"></path>
                        </g>
                        <path d="M32,74.6666667 L75.6758151,44.0583734" id="Path-5-Copy-13" stroke="#77C2C7" stroke-width="4"></path>
                        <path d="M81.3333333,40 L92.2522871,32.3479267" id="Path-5-Copy-15" stroke="#77C2C7" stroke-width="4"></path>
                        <path d="M97.3333333,28 L114.803659,15.7566827" id="Path-5-Copy-16" stroke="#77C2C7" stroke-width="4"></path>
                        <path d="M45.3333333,82.6666667 L130.948983,22.6666667" id="Path-5-Copy-14" stroke="#77C2C7" stroke-width="4"></path>
                        <path d="M56,90.6666667 L77.8379076,75.36252" id="Path-5-Copy-18" stroke="#77C2C7" stroke-width="4"></path>
                    </g>
                </g>
            </g>
        </g>
    </g>
</svg>