<?xml version="1.0" encoding="utf-8"?>
<!-- Generator: Adobe Illustrator 21.0.2, SVG Export Plug-In . SVG Version: 6.00 Build 0)  -->
<svg version="1.1" id="Layer_1" xmlns="http://www.w3.org/2000/svg" xmlns:xlink="http://www.w3.org/1999/xlink" x="0px" y="0px"
	 viewBox="0 0 375 300" style="enable-background:new 0 0 375 300;" xml:space="preserve">
<style type="text/css">
	.st0{fill:none;stroke:#EE6262;stroke-width:6;stroke-linecap:round;stroke-linejoin:round;}
	.st1{fill:none;stroke:#EE6262;stroke-width:6;}
	.st2{fill:none;stroke:#70B875;stroke-width:6;stroke-linecap:round;stroke-linejoin:round;}
	.st3{fill:none;stroke:#70B875;stroke-width:6;}
	.st4{fill:none;stroke:#4368C8;stroke-width:6;stroke-linecap:round;stroke-linejoin:round;}
	.st5{fill:none;stroke:#4368C8;stroke-width:6;}
	.st6{fill:none;stroke:#169CA6;stroke-width:6;stroke-linecap:round;stroke-linejoin:round;}
	.st7{fill:none;stroke:#169CA6;stroke-width:6;}
	.st8{enable-background:new    ;}
	.st9{fill:#83A5C2;}
	.st10{fill:none;stroke:#83A5C2;stroke-width:6;stroke-linecap:round;stroke-linejoin:round;}
</style>
<title>Home Page &gt; Team Assistance</title>
<desc>Created with Sketch.</desc>
<g id="Page-1">
	<g id="Home-Page-_x3E_-Team-Assistance">
		<g id="UX-is-not-a-department" transform="translate(51.000000, 45.000000)">
			<g id="Group-3">
				<g id="Group-16">
					<g id="Group-2" transform="translate(7.000000, 0.000000)">
						<g id="Group-Copy-3" transform="translate(0.000000, 132.359551)">
							<path id="Path-19-Copy-3" class="st0" d="M0.2,55.6c0,0-0.6-27.2,18.5-27.2s18.5,27.5,18.5,27.5"/>
							<ellipse id="Oval-Copy-3" class="st1" cx="18.3" cy="12.6" rx="12.6" ry="12.6"/>
						</g>
						<g id="Group-Copy-4" transform="translate(106.000000, 132.000000)">
							<path id="Path-19-Copy-2" class="st2" d="M0.2,55.6c0,0-0.6-27.2,18.5-27.2s18.5,27.5,18.5,27.5"/>
							<ellipse id="Oval-Copy-2" class="st3" cx="18.3" cy="12.6" rx="12.6" ry="12.6"/>
						</g>
						<g id="Group-Copy-5" transform="translate(212.546816, 132.359551)">
							<path id="Path-19-Copy" class="st4" d="M0.2,55.6c0,0-0.6-27.2,18.5-27.2s18.5,27.5,18.5,27.5"/>
							<ellipse id="Oval-Copy" class="st5" cx="18.3" cy="12.6" rx="12.6" ry="12.6"/>
						</g>
						<g id="Group-17-Copy" transform="translate(70.000000, 0.000000)">
							<g id="Group-Copy-6" transform="translate(34.868914, 0.000000)">
								<path id="Path-19" class="st6" d="M0.2,55.6c0,0-0.6-27.2,18.5-27.2s18.5,27.5,18.5,27.5"/>
								<ellipse id="Oval" class="st7" cx="18.3" cy="12.6" rx="12.6" ry="12.6"/>
							</g>
							<g id="Group-Copy-7" transform="translate(0.224719, 14.044944)">
								<path id="Path-19_1_" class="st6" d="M0.2,55.6c0,0-0.6-27.2,18.5-27.2s18.5,27.5,18.5,27.5"/>
								<ellipse id="Oval_1_" class="st7" cx="18.3" cy="12.6" rx="12.6" ry="12.6"/>
							</g>
							<g id="Group-Copy-8" transform="translate(70.449438, 14.044944)">
								<path id="Path-19_2_" class="st6" d="M0.2,55.6c0,0-0.6-27.2,18.5-27.2s18.5,27.5,18.5,27.5"/>
								<ellipse id="Oval_2_" class="st7" cx="18.3" cy="12.6" rx="12.6" ry="12.6"/>
							</g>
						</g>
					</g>
					<g class="st8">
						<path class="st9" d="M83.4,79.3c0.2,0,0.4,0.1,0.6,0.3s0.3,0.4,0.3,0.6c0,0.2-0.1,0.4-0.2,0.6L80.6,85v4.2
							c0,0.3-0.1,0.5-0.3,0.7c-0.2,0.2-0.4,0.3-0.7,0.3c-0.3,0-0.5-0.1-0.7-0.3c-0.2-0.2-0.3-0.4-0.3-0.7V85l-3.4-4.2
							c-0.1-0.2-0.2-0.4-0.2-0.6c0-0.2,0.1-0.4,0.3-0.6c0.2-0.2,0.4-0.3,0.6-0.3c0.2,0,0.5,0.1,0.6,0.3l3.1,3.8l3.1-3.8
							C82.9,79.5,83.1,79.3,83.4,79.3z"/>
						<path class="st9" d="M89.9,89.5c-0.8-0.4-1.3-1.1-1.7-1.9c-0.4-0.8-0.6-1.8-0.6-2.9s0.2-2.1,0.6-2.9c0.4-0.8,1-1.4,1.7-1.9
							c0.8-0.4,1.7-0.7,2.7-0.7c1,0,1.9,0.2,2.7,0.7s1.3,1.1,1.7,1.9c0.4,0.8,0.6,1.8,0.6,2.9s-0.2,2.1-0.6,2.9
							c-0.4,0.8-1,1.5-1.7,1.9c-0.8,0.4-1.6,0.7-2.7,0.7C91.5,90.1,90.6,89.9,89.9,89.5z M94.8,87.6c0.5-0.7,0.8-1.6,0.8-2.9
							s-0.3-2.2-0.8-2.9c-0.5-0.7-1.3-1-2.3-1c-1,0-1.7,0.3-2.3,1c-0.5,0.7-0.8,1.6-0.8,2.9s0.3,2.2,0.8,2.9s1.3,1,2.3,1
							C93.5,88.6,94.3,88.3,94.8,87.6z"/>
						<path class="st9" d="M103.6,89c-0.8-0.8-1.1-1.8-1.1-3.3v-5.4c0-0.3,0.1-0.5,0.3-0.7s0.4-0.3,0.7-0.3s0.5,0.1,0.7,0.3
							s0.3,0.4,0.3,0.7v5.5c0,0.9,0.2,1.6,0.6,2.1c0.4,0.5,1.1,0.7,1.9,0.7c0.8,0,1.4-0.2,1.9-0.7c0.4-0.5,0.6-1.2,0.6-2.1v-5.5
							c0-0.3,0.1-0.5,0.3-0.7s0.4-0.3,0.7-0.3c0.3,0,0.5,0.1,0.7,0.3c0.2,0.2,0.3,0.4,0.3,0.7v5.4c0,1.4-0.4,2.5-1.1,3.3
							s-1.8,1.1-3.3,1.1C105.5,90.1,104.4,89.8,103.6,89z"/>
						<path class="st9" d="M125.2,89.3c0,0.2-0.1,0.4-0.3,0.6c-0.2,0.2-0.4,0.2-0.7,0.2c-0.2,0-0.3,0-0.5-0.1
							c-0.1-0.1-0.3-0.2-0.4-0.3l-2-3c-0.2-0.3-0.4-0.5-0.6-0.7s-0.5-0.2-0.9-0.2h-1.5v3.4c0,0.3-0.1,0.5-0.3,0.7
							c-0.2,0.2-0.4,0.3-0.7,0.3s-0.5-0.1-0.7-0.3s-0.3-0.4-0.3-0.7v-8.8c0-0.3,0.1-0.5,0.2-0.7s0.4-0.2,0.7-0.2h3.8
							c1.2,0,2.1,0.3,2.7,0.8c0.6,0.5,0.9,1.3,0.9,2.3c0,0.8-0.2,1.5-0.7,2c-0.5,0.5-1.1,0.9-2,1c0.3,0.1,0.5,0.2,0.8,0.4
							c0.2,0.2,0.4,0.4,0.6,0.8l1.4,2.1C125.1,89,125.2,89.1,125.2,89.3z M122.5,83.9c0.3-0.3,0.5-0.7,0.5-1.3c0-0.6-0.2-1-0.5-1.3
							c-0.3-0.3-0.9-0.4-1.6-0.4h-2.5v3.3h2.5C121.7,84.3,122.2,84.1,122.5,83.9z"/>
						<path class="st9" d="M139.8,89.8c-0.2-0.2-0.3-0.4-0.3-0.7V81h-2.7c-0.6,0-0.9-0.3-0.9-0.8c0-0.5,0.3-0.8,0.9-0.8h7.4
							c0.6,0,0.9,0.3,0.9,0.8c0,0.5-0.3,0.8-0.9,0.8h-2.7v8.1c0,0.3-0.1,0.5-0.3,0.7c-0.2,0.2-0.4,0.3-0.7,0.3
							C140.2,90.1,140,90,139.8,89.8z"/>
						<path class="st9" d="M149.5,89.8c-0.2-0.2-0.2-0.4-0.2-0.7v-8.7c0-0.3,0.1-0.5,0.2-0.7s0.4-0.2,0.7-0.2h5.4
							c0.3,0,0.5,0.1,0.7,0.2c0.2,0.1,0.2,0.3,0.2,0.6c0,0.2-0.1,0.4-0.2,0.6c-0.2,0.1-0.4,0.2-0.7,0.2h-4.5v2.9h4.2
							c0.3,0,0.5,0.1,0.7,0.2c0.2,0.1,0.2,0.3,0.2,0.6c0,0.2-0.1,0.4-0.2,0.6c-0.2,0.1-0.4,0.2-0.7,0.2h-4.2v3.1h4.5
							c0.3,0,0.5,0.1,0.7,0.2c0.2,0.1,0.2,0.3,0.2,0.6c0,0.2-0.1,0.4-0.2,0.6c-0.2,0.1-0.4,0.2-0.7,0.2h-5.4
							C149.9,90,149.6,89.9,149.5,89.8z"/>
						<path class="st9" d="M170.5,89.2c0,0.2-0.1,0.4-0.3,0.6c-0.2,0.2-0.4,0.2-0.6,0.2c-0.2,0-0.3,0-0.5-0.1s-0.3-0.2-0.3-0.4
							l-0.9-2h-5.3l-0.9,2c-0.1,0.2-0.2,0.3-0.3,0.4s-0.3,0.1-0.5,0.1c-0.2,0-0.4-0.1-0.6-0.2c-0.2-0.2-0.3-0.4-0.3-0.6
							c0-0.1,0-0.3,0.1-0.4l4.1-8.9c0.1-0.2,0.2-0.4,0.4-0.5c0.2-0.1,0.4-0.2,0.6-0.2c0.2,0,0.4,0.1,0.6,0.2
							c0.2,0.1,0.3,0.3,0.4,0.5l4.2,8.9C170.5,89,170.5,89.1,170.5,89.2z M163.3,86h4l-2-4.5L163.3,86z"/>
						<path class="st9" d="M185.1,79.6c0.2,0.2,0.3,0.4,0.3,0.7v8.9c0,0.3-0.1,0.5-0.2,0.7c-0.2,0.2-0.4,0.2-0.6,0.2
							c-0.3,0-0.5-0.1-0.6-0.2c-0.2-0.2-0.2-0.4-0.2-0.7V83l-2.5,4.8c-0.1,0.2-0.2,0.4-0.4,0.5c-0.1,0.1-0.3,0.2-0.5,0.2
							c-0.2,0-0.4,0-0.5-0.2c-0.1-0.1-0.3-0.3-0.4-0.5l-2.6-4.8v6.1c0,0.3-0.1,0.5-0.2,0.7c-0.2,0.2-0.4,0.2-0.6,0.2
							c-0.3,0-0.5-0.1-0.6-0.2c-0.2-0.2-0.2-0.4-0.2-0.7v-8.9c0-0.3,0.1-0.5,0.2-0.7c0.2-0.2,0.4-0.3,0.7-0.3c0.4,0,0.7,0.2,0.9,0.6
							l3.3,6.3l3.3-6.3c0.2-0.4,0.5-0.6,0.9-0.6C184.7,79.3,184.9,79.4,185.1,79.6z"/>
					</g>
					<g class="st8">
						<path class="st9" d="M1.1,205.8c-0.1-0.1-0.2-0.3-0.2-0.5v-7c0-0.2,0.1-0.4,0.2-0.5c0.1-0.1,0.3-0.2,0.5-0.2H4
							c1.4,0,2.5,0.4,3.2,1.1c0.8,0.7,1.1,1.8,1.1,3.1c0,1.3-0.4,2.4-1.1,3.1C6.5,205.6,5.4,206,4,206H1.7
							C1.4,206,1.2,205.9,1.1,205.8z M3.9,204.7c1.9,0,2.9-1,2.9-3c0-2-1-3-2.9-3H2.5v5.9H3.9z"/>
						<path class="st9" d="M11.8,205.8c-0.1-0.1-0.2-0.3-0.2-0.5v-7c0-0.2,0.1-0.4,0.2-0.5c0.1-0.1,0.3-0.2,0.5-0.2h4.3
							c0.2,0,0.4,0.1,0.5,0.2c0.1,0.1,0.2,0.3,0.2,0.4c0,0.2-0.1,0.4-0.2,0.5c-0.1,0.1-0.3,0.2-0.5,0.2h-3.6v2.3h3.3
							c0.2,0,0.4,0.1,0.5,0.2c0.1,0.1,0.2,0.3,0.2,0.5c0,0.2-0.1,0.3-0.2,0.4c-0.1,0.1-0.3,0.2-0.5,0.2h-3.3v2.5h3.6
							c0.2,0,0.4,0.1,0.5,0.2c0.1,0.1,0.2,0.3,0.2,0.5c0,0.2-0.1,0.3-0.2,0.4c-0.1,0.1-0.3,0.2-0.5,0.2h-4.3
							C12.1,206,11.9,205.9,11.8,205.8z"/>
						<path class="st9" d="M21.3,205.9c-0.5-0.2-1-0.4-1.3-0.7c-0.2-0.1-0.3-0.3-0.3-0.6c0-0.2,0-0.3,0.1-0.4s0.2-0.2,0.4-0.2
							c0.1,0,0.3,0.1,0.5,0.2c0.3,0.2,0.7,0.4,1.1,0.5c0.4,0.1,0.8,0.2,1.2,0.2c0.6,0,1-0.1,1.3-0.3c0.3-0.2,0.5-0.5,0.5-0.9
							c0-0.3-0.1-0.5-0.4-0.7c-0.3-0.2-0.8-0.3-1.5-0.5c-0.7-0.2-1.3-0.3-1.7-0.5c-0.4-0.2-0.8-0.5-1-0.8c-0.2-0.3-0.3-0.7-0.3-1.2
							c0-0.5,0.1-0.9,0.4-1.3c0.3-0.4,0.7-0.7,1.2-0.9c0.5-0.2,1.1-0.3,1.7-0.3c1.1,0,2.1,0.3,2.8,0.9c0.1,0.1,0.2,0.2,0.2,0.3
							s0.1,0.2,0.1,0.3c0,0.2-0.1,0.3-0.2,0.4s-0.2,0.2-0.4,0.2c-0.1,0-0.2,0-0.2,0c-0.1,0-0.2-0.1-0.3-0.1c-0.3-0.2-0.6-0.4-1-0.5
							c-0.3-0.1-0.7-0.2-1.1-0.2c-0.5,0-1,0.1-1.3,0.3c-0.3,0.2-0.5,0.5-0.5,0.9c0,0.3,0.1,0.6,0.4,0.8c0.3,0.2,0.8,0.3,1.4,0.5
							c0.7,0.2,1.3,0.3,1.7,0.5c0.4,0.2,0.8,0.4,1,0.8c0.2,0.3,0.4,0.7,0.4,1.1c0,0.5-0.1,0.9-0.4,1.3s-0.7,0.7-1.2,0.9
							s-1.1,0.3-1.7,0.3C22.4,206.1,21.8,206,21.3,205.9z"/>
						<path class="st9" d="M29.6,205.9c-0.1-0.1-0.2-0.3-0.2-0.6v-7c0-0.2,0.1-0.4,0.2-0.6c0.1-0.1,0.3-0.2,0.6-0.2
							c0.2,0,0.4,0.1,0.6,0.2c0.1,0.1,0.2,0.3,0.2,0.6v7c0,0.2-0.1,0.4-0.2,0.6c-0.1,0.1-0.3,0.2-0.6,0.2
							C29.9,206.1,29.7,206,29.6,205.9z"/>
						<path class="st9" d="M41.2,201.6c0.1,0.1,0.2,0.2,0.2,0.4v2.6c0,0.4,0,0.6-0.1,0.8c-0.1,0.2-0.3,0.3-0.6,0.4
							c-0.3,0.1-0.7,0.2-1.1,0.3c-0.4,0.1-0.8,0.1-1.2,0.1c-0.9,0-1.6-0.2-2.3-0.5c-0.6-0.3-1.1-0.8-1.5-1.5
							c-0.3-0.7-0.5-1.4-0.5-2.3c0-0.9,0.2-1.7,0.5-2.3c0.3-0.7,0.8-1.2,1.4-1.5s1.4-0.5,2.2-0.5c1.1,0,2.1,0.3,2.8,0.9
							c0.1,0.1,0.2,0.2,0.2,0.3s0.1,0.2,0.1,0.3c0,0.2,0,0.3-0.1,0.4c-0.1,0.1-0.2,0.2-0.3,0.2c-0.1,0-0.2,0-0.2,0
							c-0.1,0-0.2-0.1-0.3-0.1c-0.4-0.2-0.7-0.4-1-0.5c-0.3-0.1-0.6-0.1-1-0.1c-0.9,0-1.5,0.3-2,0.8c-0.4,0.5-0.7,1.3-0.7,2.3
							c0,2.1,0.9,3.1,2.7,3.1c0.5,0,1.1-0.1,1.6-0.2v-2.1h-1.4c-0.2,0-0.3,0-0.4-0.1c-0.1-0.1-0.2-0.2-0.2-0.4
							c0-0.2,0.1-0.3,0.2-0.4c0.1-0.1,0.3-0.1,0.4-0.1h2.1C40.9,201.4,41.1,201.5,41.2,201.6z"/>
						<path class="st9" d="M51.7,197.7c0.1,0.1,0.2,0.3,0.2,0.6v7c0,0.2-0.1,0.4-0.2,0.6c-0.1,0.1-0.3,0.2-0.5,0.2
							c-0.3,0-0.5-0.1-0.6-0.3l-4.4-5.7v5.2c0,0.2-0.1,0.4-0.2,0.6c-0.1,0.1-0.3,0.2-0.5,0.2s-0.4-0.1-0.5-0.2
							c-0.1-0.1-0.2-0.3-0.2-0.6v-7c0-0.2,0.1-0.4,0.2-0.6c0.1-0.1,0.3-0.2,0.5-0.2c0.2,0,0.4,0.1,0.6,0.3l4.4,5.7v-5.2
							c0-0.2,0.1-0.4,0.2-0.6c0.1-0.1,0.3-0.2,0.5-0.2C51.3,197.5,51.5,197.5,51.7,197.7z"/>
					</g>
					<g class="st8">
						<path class="st9" d="M92.1,205.9c-0.1-0.1-0.2-0.3-0.2-0.6v-7c0-0.2,0.1-0.4,0.2-0.5c0.1-0.1,0.3-0.2,0.5-0.2h3
							c0.9,0,1.6,0.2,2.1,0.7c0.5,0.5,0.8,1.1,0.8,1.9c0,0.8-0.3,1.5-0.8,1.9c-0.5,0.5-1.2,0.7-2.1,0.7h-2.1v2.6
							c0,0.2-0.1,0.4-0.2,0.6c-0.1,0.1-0.3,0.2-0.6,0.2C92.4,206.1,92.3,206,92.1,205.9z M95.4,201.5c1.1,0,1.6-0.5,1.6-1.4
							c0-0.9-0.5-1.4-1.6-1.4h-2v2.8H95.4z"/>
						<path class="st9" d="M108.3,205.4c0,0.2-0.1,0.3-0.2,0.5s-0.3,0.2-0.5,0.2c-0.1,0-0.2,0-0.4-0.1c-0.1-0.1-0.2-0.2-0.3-0.3
							l-1.6-2.4c-0.2-0.3-0.3-0.4-0.5-0.5c-0.2-0.1-0.4-0.2-0.7-0.2H103v2.7c0,0.2-0.1,0.4-0.2,0.6c-0.1,0.1-0.3,0.2-0.6,0.2
							c-0.2,0-0.4-0.1-0.6-0.2c-0.1-0.1-0.2-0.3-0.2-0.6v-7c0-0.2,0.1-0.4,0.2-0.5c0.1-0.1,0.3-0.2,0.5-0.2h3c1,0,1.7,0.2,2.2,0.6
							c0.5,0.4,0.8,1,0.8,1.9c0,0.7-0.2,1.2-0.6,1.6s-0.9,0.7-1.6,0.8c0.2,0.1,0.4,0.2,0.6,0.3c0.2,0.1,0.3,0.3,0.5,0.6l1.1,1.7
							C108.3,205.2,108.3,205.3,108.3,205.4z M106.2,201.1c0.3-0.2,0.4-0.6,0.4-1c0-0.5-0.1-0.8-0.4-1c-0.3-0.2-0.7-0.3-1.3-0.3h-2
							v2.7h2C105.5,201.4,106,201.3,106.2,201.1z"/>
						<path class="st9" d="M112.9,205.6c-0.6-0.4-1.1-0.9-1.4-1.5c-0.3-0.7-0.5-1.4-0.5-2.3c0-0.9,0.2-1.6,0.5-2.3
							c0.3-0.7,0.8-1.2,1.4-1.5c0.6-0.4,1.3-0.5,2.1-0.5c0.8,0,1.5,0.2,2.1,0.5c0.6,0.4,1.1,0.9,1.4,1.5c0.3,0.7,0.5,1.4,0.5,2.3
							c0,0.9-0.2,1.6-0.5,2.3c-0.3,0.7-0.8,1.2-1.4,1.5s-1.3,0.5-2.1,0.5C114.2,206.1,113.5,205.9,112.9,205.6z M116.9,204.1
							c0.4-0.5,0.7-1.3,0.7-2.3s-0.2-1.8-0.7-2.3s-1-0.8-1.8-0.8c-0.8,0-1.4,0.3-1.8,0.8s-0.7,1.3-0.7,2.3s0.2,1.8,0.7,2.3
							s1,0.8,1.8,0.8C115.8,204.9,116.5,204.6,116.9,204.1z"/>
						<path class="st9" d="M123.9,205.8c-0.1-0.1-0.2-0.3-0.2-0.6v-6.5h-2.2c-0.5,0-0.7-0.2-0.7-0.6c0-0.4,0.2-0.6,0.7-0.6h5.9
							c0.5,0,0.7,0.2,0.7,0.6c0,0.4-0.2,0.6-0.7,0.6h-2.2v6.5c0,0.2-0.1,0.4-0.2,0.6c-0.1,0.1-0.3,0.2-0.6,0.2
							C124.3,206.1,124.1,206,123.9,205.8z"/>
						<path class="st9" d="M131.8,205.6c-0.6-0.4-1.1-0.9-1.4-1.5c-0.3-0.7-0.5-1.4-0.5-2.3c0-0.9,0.2-1.6,0.5-2.3
							c0.3-0.7,0.8-1.2,1.4-1.5c0.6-0.4,1.3-0.5,2.1-0.5c0.8,0,1.5,0.2,2.1,0.5c0.6,0.4,1.1,0.9,1.4,1.5c0.3,0.7,0.5,1.4,0.5,2.3
							c0,0.9-0.2,1.6-0.5,2.3c-0.3,0.7-0.8,1.2-1.4,1.5s-1.3,0.5-2.1,0.5C133.1,206.1,132.4,205.9,131.8,205.6z M135.8,204.1
							c0.4-0.5,0.7-1.3,0.7-2.3s-0.2-1.8-0.7-2.3s-1-0.8-1.8-0.8c-0.8,0-1.4,0.3-1.8,0.8s-0.7,1.3-0.7,2.3s0.2,1.8,0.7,2.3
							s1,0.8,1.8,0.8C134.7,204.9,135.3,204.6,135.8,204.1z"/>
						<path class="st9" d="M142.8,205.8c-0.1-0.1-0.2-0.3-0.2-0.6v-6.5h-2.2c-0.5,0-0.7-0.2-0.7-0.6c0-0.4,0.2-0.6,0.7-0.6h5.9
							c0.5,0,0.7,0.2,0.7,0.6c0,0.4-0.2,0.6-0.7,0.6h-2.2v6.5c0,0.2-0.1,0.4-0.2,0.6c-0.1,0.1-0.3,0.2-0.6,0.2
							C143.2,206.1,143,206,142.8,205.8z"/>
						<path class="st9" d="M155.6,197.5c0.2,0,0.3,0.1,0.5,0.2c0.1,0.1,0.2,0.3,0.2,0.5c0,0.2-0.1,0.3-0.2,0.5l-2.7,3.3v3.3
							c0,0.2-0.1,0.4-0.2,0.6s-0.3,0.2-0.6,0.2c-0.2,0-0.4-0.1-0.6-0.2c-0.1-0.1-0.2-0.3-0.2-0.6V202l-2.7-3.3
							c-0.1-0.1-0.2-0.3-0.2-0.5c0-0.2,0.1-0.4,0.2-0.5c0.1-0.1,0.3-0.2,0.5-0.2c0.2,0,0.4,0.1,0.5,0.3l2.5,3l2.4-3
							C155.2,197.6,155.4,197.5,155.6,197.5z"/>
						<path class="st9" d="M159,205.9c-0.1-0.1-0.2-0.3-0.2-0.6v-7c0-0.2,0.1-0.4,0.2-0.5c0.1-0.1,0.3-0.2,0.5-0.2h3
							c0.9,0,1.6,0.2,2.1,0.7c0.5,0.5,0.8,1.1,0.8,1.9c0,0.8-0.3,1.5-0.8,1.9c-0.5,0.5-1.2,0.7-2.1,0.7h-2.1v2.6
							c0,0.2-0.1,0.4-0.2,0.6c-0.1,0.1-0.3,0.2-0.6,0.2C159.4,206.1,159.2,206,159,205.9z M162.3,201.5c1.1,0,1.6-0.5,1.6-1.4
							c0-0.9-0.5-1.4-1.6-1.4h-2v2.8H162.3z"/>
						<path class="st9" d="M168.5,205.8c-0.1-0.1-0.2-0.3-0.2-0.5v-7c0-0.2,0.1-0.4,0.2-0.5c0.1-0.1,0.3-0.2,0.5-0.2h4.3
							c0.2,0,0.4,0.1,0.5,0.2c0.1,0.1,0.2,0.3,0.2,0.4c0,0.2-0.1,0.4-0.2,0.5c-0.1,0.1-0.3,0.2-0.5,0.2h-3.6v2.3h3.3
							c0.2,0,0.4,0.1,0.5,0.2c0.1,0.1,0.2,0.3,0.2,0.5c0,0.2-0.1,0.3-0.2,0.4c-0.1,0.1-0.3,0.2-0.5,0.2h-3.3v2.5h3.6
							c0.2,0,0.4,0.1,0.5,0.2c0.1,0.1,0.2,0.3,0.2,0.5c0,0.2-0.1,0.3-0.2,0.4c-0.1,0.1-0.3,0.2-0.5,0.2h-4.3
							C168.9,206,168.7,205.9,168.5,205.8z"/>
					</g>
					<g class="st8">
						<path class="st9" d="M208.8,204.4c0,0.2-0.1,0.3-0.2,0.5c-0.1,0.1-0.3,0.2-0.5,0.2c-0.1,0-0.2,0-0.4-0.1
							c-0.1-0.1-0.2-0.2-0.3-0.3l-1.6-2.4c-0.2-0.3-0.3-0.4-0.5-0.5c-0.2-0.1-0.4-0.2-0.7-0.2h-1.2v2.7c0,0.2-0.1,0.4-0.2,0.6
							c-0.1,0.1-0.3,0.2-0.6,0.2s-0.4-0.1-0.6-0.2c-0.1-0.1-0.2-0.3-0.2-0.6v-7c0-0.2,0.1-0.4,0.2-0.5c0.1-0.1,0.3-0.2,0.5-0.2h3
							c1,0,1.7,0.2,2.2,0.6c0.5,0.4,0.8,1,0.8,1.9c0,0.7-0.2,1.2-0.6,1.6s-0.9,0.7-1.6,0.8c0.2,0.1,0.4,0.2,0.6,0.3
							c0.2,0.1,0.3,0.3,0.5,0.6l1.1,1.7C208.8,204.2,208.8,204.3,208.8,204.4z M206.7,200.1c0.3-0.2,0.4-0.6,0.4-1
							c0-0.5-0.1-0.8-0.4-1c-0.3-0.2-0.7-0.3-1.3-0.3h-2v2.7h2C206,200.4,206.5,200.3,206.7,200.1z"/>
						<path class="st9" d="M211.4,204.8c-0.1-0.1-0.2-0.3-0.2-0.5v-7c0-0.2,0.1-0.4,0.2-0.5c0.1-0.1,0.3-0.2,0.5-0.2h4.3
							c0.2,0,0.4,0.1,0.5,0.2c0.1,0.1,0.2,0.3,0.2,0.4c0,0.2-0.1,0.4-0.2,0.5c-0.1,0.1-0.3,0.2-0.5,0.2h-3.6v2.3h3.3
							c0.2,0,0.4,0.1,0.5,0.2c0.1,0.1,0.2,0.3,0.2,0.5c0,0.2-0.1,0.3-0.2,0.4c-0.1,0.1-0.3,0.2-0.5,0.2h-3.3v2.5h3.6
							c0.2,0,0.4,0.1,0.5,0.2c0.1,0.1,0.2,0.3,0.2,0.5c0,0.2-0.1,0.3-0.2,0.4c-0.1,0.1-0.3,0.2-0.5,0.2H212
							C211.8,205,211.6,204.9,211.4,204.8z"/>
						<path class="st9" d="M220.4,204.9c-0.5-0.2-1-0.4-1.3-0.7c-0.2-0.1-0.3-0.3-0.3-0.6c0-0.2,0-0.3,0.2-0.4
							c0.1-0.1,0.2-0.2,0.4-0.2c0.1,0,0.3,0.1,0.5,0.2c0.3,0.2,0.7,0.4,1.1,0.5c0.4,0.1,0.8,0.2,1.2,0.2c0.6,0,1-0.1,1.3-0.3
							c0.3-0.2,0.5-0.5,0.5-0.9c0-0.3-0.1-0.5-0.4-0.7s-0.8-0.3-1.5-0.5c-0.7-0.2-1.3-0.3-1.7-0.5c-0.4-0.2-0.8-0.5-1-0.8
							c-0.2-0.3-0.3-0.7-0.3-1.2c0-0.5,0.1-0.9,0.4-1.3c0.3-0.4,0.7-0.7,1.2-0.9c0.5-0.2,1.1-0.3,1.7-0.3c1.1,0,2.1,0.3,2.8,0.9
							c0.1,0.1,0.2,0.2,0.2,0.3c0,0.1,0.1,0.2,0.1,0.3c0,0.2-0.1,0.3-0.2,0.4c-0.1,0.1-0.2,0.2-0.4,0.2c-0.1,0-0.2,0-0.2,0
							c-0.1,0-0.2-0.1-0.3-0.1c-0.3-0.2-0.6-0.4-1-0.5c-0.3-0.1-0.7-0.2-1.1-0.2c-0.5,0-1,0.1-1.3,0.3s-0.5,0.5-0.5,0.9
							c0,0.3,0.1,0.6,0.4,0.8s0.8,0.3,1.4,0.5c0.7,0.2,1.3,0.3,1.7,0.5s0.8,0.4,1,0.8c0.2,0.3,0.4,0.7,0.4,1.1
							c0,0.5-0.1,0.9-0.4,1.3s-0.7,0.7-1.2,0.9s-1.1,0.3-1.7,0.3C221.5,205.1,220.9,205,220.4,204.9z"/>
						<path class="st9" d="M228,204.8c-0.1-0.1-0.2-0.3-0.2-0.5v-7c0-0.2,0.1-0.4,0.2-0.5c0.1-0.1,0.3-0.2,0.5-0.2h4.3
							c0.2,0,0.4,0.1,0.5,0.2c0.1,0.1,0.2,0.3,0.2,0.4c0,0.2-0.1,0.4-0.2,0.5c-0.1,0.1-0.3,0.2-0.5,0.2h-3.6v2.3h3.3
							c0.2,0,0.4,0.1,0.5,0.2c0.1,0.1,0.2,0.3,0.2,0.5c0,0.2-0.1,0.3-0.2,0.4c-0.1,0.1-0.3,0.2-0.5,0.2h-3.3v2.5h3.6
							c0.2,0,0.4,0.1,0.5,0.2c0.1,0.1,0.2,0.3,0.2,0.5c0,0.2-0.1,0.3-0.2,0.4c-0.1,0.1-0.3,0.2-0.5,0.2h-4.3
							C228.4,205,228.2,204.9,228,204.8z"/>
						<path class="st9" d="M243.5,204.4c0,0.2-0.1,0.3-0.2,0.5s-0.3,0.2-0.5,0.2c-0.1,0-0.2,0-0.4-0.1c-0.1-0.1-0.2-0.2-0.3-0.3
							l-0.7-1.6h-4.2l-0.7,1.6c-0.1,0.1-0.2,0.2-0.3,0.3c-0.1,0.1-0.2,0.1-0.4,0.1c-0.2,0-0.4-0.1-0.5-0.2s-0.2-0.3-0.2-0.5
							c0-0.1,0-0.2,0.1-0.3l3.3-7.1c0.1-0.2,0.2-0.3,0.3-0.4c0.1-0.1,0.3-0.1,0.5-0.1s0.3,0,0.5,0.1s0.3,0.2,0.3,0.4l3.3,7.1
							C243.5,204.2,243.5,204.3,243.5,204.4z M237.7,201.8h3.2l-1.6-3.6L237.7,201.8z"/>
						<path class="st9" d="M252.6,204.4c0,0.2-0.1,0.3-0.2,0.5s-0.3,0.2-0.5,0.2c-0.1,0-0.2,0-0.4-0.1c-0.1-0.1-0.2-0.2-0.3-0.3
							l-1.6-2.4c-0.2-0.3-0.3-0.4-0.5-0.5c-0.2-0.1-0.4-0.2-0.7-0.2h-1.2v2.7c0,0.2-0.1,0.4-0.2,0.6c-0.1,0.1-0.3,0.2-0.6,0.2
							s-0.4-0.1-0.6-0.2c-0.1-0.1-0.2-0.3-0.2-0.6v-7c0-0.2,0.1-0.4,0.2-0.5c0.1-0.1,0.3-0.2,0.5-0.2h3c1,0,1.7,0.2,2.2,0.6
							c0.5,0.4,0.8,1,0.8,1.9c0,0.7-0.2,1.2-0.6,1.6c-0.4,0.4-0.9,0.7-1.6,0.8c0.2,0.1,0.4,0.2,0.6,0.3c0.2,0.1,0.3,0.3,0.5,0.6
							l1.1,1.7C252.5,204.2,252.6,204.3,252.6,204.4z M250.5,200.1c0.3-0.2,0.4-0.6,0.4-1c0-0.5-0.1-0.8-0.4-1
							c-0.3-0.2-0.7-0.3-1.3-0.3h-2v2.7h2C249.8,200.4,250.2,200.3,250.5,200.1z"/>
						<path class="st9" d="M256.6,204.6c-0.6-0.4-1.1-0.9-1.4-1.5c-0.3-0.7-0.5-1.4-0.5-2.3c0-0.9,0.2-1.6,0.5-2.3
							c0.3-0.7,0.8-1.2,1.4-1.5c0.6-0.4,1.3-0.5,2.1-0.5c0.5,0,1,0.1,1.5,0.2c0.5,0.2,0.9,0.4,1.2,0.7c0.1,0.1,0.2,0.2,0.2,0.3
							c0,0.1,0.1,0.2,0.1,0.3c0,0.2,0,0.3-0.1,0.4c-0.1,0.1-0.2,0.2-0.3,0.2c-0.2,0-0.3-0.1-0.5-0.2c-0.3-0.3-0.7-0.4-1-0.5
							c-0.3-0.1-0.6-0.1-1-0.1c-0.8,0-1.5,0.3-1.9,0.8c-0.4,0.5-0.6,1.3-0.6,2.3c0,1,0.2,1.8,0.6,2.3c0.4,0.5,1.1,0.8,1.9,0.8
							c0.3,0,0.7-0.1,1-0.2c0.3-0.1,0.6-0.3,1-0.5c0.1,0,0.2-0.1,0.2-0.1c0.1,0,0.2,0,0.3,0c0.1,0,0.3,0.1,0.3,0.2
							c0.1,0.1,0.1,0.3,0.1,0.4c0,0.1,0,0.2-0.1,0.3c0,0.1-0.1,0.2-0.2,0.3c-0.4,0.3-0.8,0.5-1.2,0.7c-0.5,0.2-1,0.2-1.5,0.2
							C257.9,205.1,257.2,204.9,256.6,204.6z"/>
					</g>
					<g class="st8">
						<path class="st9" d="M272.3,196.7c0.1,0.1,0.2,0.3,0.2,0.6v7c0,0.2-0.1,0.4-0.2,0.6c-0.1,0.1-0.3,0.2-0.5,0.2
							c-0.2,0-0.4-0.1-0.6-0.2c-0.1-0.1-0.2-0.3-0.2-0.6v-3h-4.3v3c0,0.2-0.1,0.4-0.2,0.6c-0.1,0.1-0.3,0.2-0.6,0.2
							c-0.2,0-0.4-0.1-0.5-0.2c-0.1-0.1-0.2-0.3-0.2-0.6v-7c0-0.2,0.1-0.4,0.2-0.6c0.1-0.1,0.3-0.2,0.6-0.2c0.2,0,0.4,0.1,0.6,0.2
							c0.1,0.1,0.2,0.3,0.2,0.6v2.8h4.3v-2.8c0-0.2,0.1-0.4,0.2-0.6c0.1-0.1,0.3-0.2,0.6-0.2C272,196.5,272.2,196.5,272.3,196.7z"/>
					</g>
				</g>
				<g id="Group-15" transform="translate(23.000000, 30.000000)">
					<polygon id="Triangle-2-Copy" class="st9" points="48.5,11 30.5,21.5 30.5,0.5 					"/>
					<path id="Path-20" class="st10" d="M39,11c0,0-4.6,0-21.6,0S0.1,13,0.1,45S0,86.6,0,86.6"/>
				</g>
				
					<g id="Group-15-Copy" transform="translate(220.000000, 75.000000) scale(-1, 1) translate(-220.000000, -75.000000) translate(193.000000, 30.000000)">
					<polygon id="Triangle-2-Copy_1_" class="st9" points="48.5,11 30.5,21.5 30.5,0.5 					"/>
					<path id="Path-20_1_" class="st10" d="M39,11c0,0-4.6,0-21.6,0S0.1,13,0.1,45S0,86.6,0,86.6"/>
				</g>
				<path id="Path-21" class="st10" d="M132,97v25.7"/>
			</g>
		</g>
	</g>
</g>
</svg>
