<?xml version="1.0" encoding="UTF-8"?>
<svg width="335px" height="250px" viewBox="0 0 335 250" version="1.1" xmlns="http://www.w3.org/2000/svg" xmlns:xlink="http://www.w3.org/1999/xlink">
    <!-- Generator: Sketch 43.2 (39069) - http://www.bohemiancoding.com/sketch -->
    <title>User Research</title>
    <desc>Created with Sketch.</desc>
    <defs>
        <ellipse id="path-1" cx="48.3129996" cy="47.8033583" rx="47.9014292" ry="47.1966417"></ellipse>
    </defs>
    <g id="Page-1" stroke="none" stroke-width="1" fill="none" fill-rule="evenodd">
        <g id="Services" transform="translate(-604.000000, -59.000000)">
            <g id="User-Research" transform="translate(562.000000, 59.000000)">
                <g id="Laptop" transform="translate(80.808081, 0.000000)">
                    <path d="M0,58.0071454 C0,52.4852627 4.32106746,46.8006708 9.63956659,45.3135555 L169.653363,0.571804482 C174.977148,-0.916788983 179.332979,2.36107446 179.382218,7.8747205 L180.555556,139.261515 L0,189.393939 L0,58.0071454 Z" id="Rectangle-16" fill="#77C2C7"></path>
                    <polygon id="Rectangle-16-Copy" fill="#FFFFFF" points="13.8888889 59.3182196 168.203009 15.9739376 169.191919 130.563893 13.8888889 172.645549"></polygon>
                    <path d="M0,189.393939 L0,194.444444 C0,195.707071 -6.72862439e-15,199.494949 3.78787879,200.757576 C7.57575758,202.020202 87.1212121,239.89899 101.010101,246.212121 C114.89899,252.525253 125.498815,248.737374 144.438209,243.686869 C163.377603,238.636364 266.414141,208.333333 279.040404,204.545455 C291.666667,200.757576 287.878788,189.393939 287.878788,189.393939 L246.212121,185.606061 L0,189.393939 Z" id="Path-52" fill="#448F95"></path>
                    <path d="M0,189.393939 L180.555556,138.888889 L286.414645,188.910217 C291.407244,191.269357 291.147359,194.416746 285.842775,195.937641 L124.510761,242.193673 C119.202326,243.715671 110.877045,243.004818 105.895034,240.595934 L0,189.393939 Z" id="Rectangle-17" fill="#64AEB3"></path>
                    <polygon id="Path-25" fill="#F2F2F2" points="23.989899 190.656566 79.5454545 217.171717 233.585859 172.979798 178.030303 147.727273"></polygon>
                    <polygon id="Path-25-Copy" fill="#F2F2F2" points="140.151515 208.333333 161.616162 220.959596 220.959596 204.545455 195.707071 191.919192"></polygon>
                    <path d="M42.9292929,184.343434 L99.6570402,212.047683" id="Path-27" stroke="#64AEB3" stroke-width="3" stroke-linecap="round"></path>
                    <path d="M59.3434343,179.292929 L116.071182,206.997178" id="Path-27-Copy" stroke="#64AEB3" stroke-width="3" stroke-linecap="round"></path>
                    <path d="M77.020202,174.242424 L120.151443,195.306519" id="Path-27-Copy-3" stroke="#64AEB3" stroke-width="3" stroke-linecap="round"></path>
                    <path d="M93.4343434,169.191919 L136.565584,190.256014" id="Path-27-Copy-2" stroke="#64AEB3" stroke-width="3" stroke-linecap="round"></path>
                    <path d="M111.111111,165.40404 L154.242352,186.468135" id="Path-27-Copy-5" stroke="#64AEB3" stroke-width="3" stroke-linecap="round"></path>
                    <path d="M127.525253,160.353535 L170.656493,181.41763" id="Path-27-Copy-4" stroke="#64AEB3" stroke-width="3" stroke-linecap="round"></path>
                    <path d="M143.939394,155.30303 L187.070635,176.367125" id="Path-27-Copy-7" stroke="#64AEB3" stroke-width="3" stroke-linecap="round"></path>
                    <path d="M160.353535,150.252525 L217.081283,177.956774" id="Path-27-Copy-6" stroke="#64AEB3" stroke-width="3" stroke-linecap="round"></path>
                    <path d="M66.9191919,212.121212 L220.959596,166.666667" id="Path-28" stroke="#64AEB3" stroke-width="3" stroke-linecap="round"></path>
                    <path d="M55.5555556,205.808081 L208.333333,161.616162" id="Path-28-Copy" stroke="#64AEB3" stroke-width="3" stroke-linecap="round"></path>
                    <path d="M42.9292929,199.494949 L195.707071,155.30303" id="Path-28-Copy-2" stroke="#64AEB3" stroke-width="3" stroke-linecap="round"></path>
                    <path d="M32.8282828,194.444444 L185.606061,150.252525" id="Path-28-Copy-3" stroke="#64AEB3" stroke-width="3" stroke-linecap="round"></path>
                    <g id="Group-18" transform="translate(18.939394, 31.565657)">
                        <g id="Group-16" transform="translate(2.525253, 12.626263)" stroke="#979797">
                            <polygon id="Path-21" stroke-width="4" fill="#FFFFFF" stroke-linecap="round" stroke-linejoin="round" points="0 40.4040404 0 69.4731257 140.151515 29.040404 141.414141 0"></polygon>
                            <path d="M0,68.1818182 L141.414141,1.26262626" id="Path-22" stroke-width="3"></path>
                            <path d="M1.26262626,42.9292929 L140.151515,26.5151515" id="Path-23" stroke-width="3"></path>
                        </g>
                        <path d="M77.020202,18.9393939 L113.441564,8.53329061" id="Path-24" stroke="#979797" stroke-width="3" stroke-linecap="round"></path>
                        <path d="M119.949495,6.31313131 L141.802312,0.0694693155" id="Path-24-Copy" stroke="#979797" stroke-width="3" stroke-linecap="round"></path>
                        <path d="M2.52525253,90.9090909 L142.676768,50.5050505" id="Path-26" stroke="#979797" stroke-width="3" stroke-linecap="round"></path>
                        <path d="M2.52525253,99.7474747 L87.4504466,75.2645359" id="Path-26-Copy" stroke="#979797" stroke-width="3" stroke-linecap="round"></path>
                        <path d="M93.4343434,73.7253631 L141.963026,59.7351123" id="Path-26-Copy-2" stroke="#979797" stroke-width="3" stroke-linecap="round"></path>
                        <polygon id="Path-53" fill="#979797" points="0 32.8282828 0 46.7171717 25.2525253 39.1414141 25.2525253 25.1952512"></polygon>
                        <polygon id="Rectangle-18" stroke="#979797" stroke-width="3" fill="#FFFFFF" stroke-linecap="round" stroke-linejoin="round" points="2.52525253 108.585859 42.9292929 97.2222222 42.9292929 117.424242 2.52525253 128.787879"></polygon>
                        <polygon id="Rectangle-18-Copy" stroke="#979797" stroke-width="3" fill="#FFFFFF" stroke-linecap="round" stroke-linejoin="round" points="53.030303 94.6969697 92.1717172 83.3333333 92.1717172 103.535354 53.030303 114.89899"></polygon>
                        <polygon id="Rectangle-18-Copy-2" stroke="#979797" stroke-width="3" fill="#FFFFFF" stroke-linecap="round" stroke-linejoin="round" points="101.010101 80.8080808 141.414141 69.4444444 141.414141 89.6464646 101.010101 101.010101"></polygon>
                    </g>
                </g>
                <g id="magnifying" transform="translate(0.000000, 16.414141)">
                    <g id="inside-glass" transform="translate(61.868687, 22.727273)">
                        <mask id="mask-2" fill="white">
                            <use xlink:href="#path-1"></use>
                        </mask>
                        <use id="Oval" fill="#FFFFFF" xlink:href="#path-1"></use>
                        <g id="Group-18" mask="url(#mask-2)">
                            <g transform="translate(15.151515, -35.353535)">
                                <g id="Group-16" stroke="none" stroke-width="1" fill="none" fill-rule="evenodd" transform="translate(3.524051, 17.385316)">
                                    <polygon id="Path-21" stroke="#979797" stroke-width="4" fill="#FFFFFF" stroke-linecap="round" stroke-linejoin="round" points="0 55.6330126 0 95.6587321 195.58481 39.9862278 197.346835 0"></polygon>
                                    <path d="M0,93.8807088 L197.346835,1.73853164" id="Path-22" stroke="#979797" stroke-width="3"></path>
                                    <path d="M1.76202531,59.1100759 L195.58481,36.5091645" id="Path-23" stroke="#979797" stroke-width="3"></path>
                                </g>
                                <path d="M107.483544,26.0779747 L158.31043,11.7496334" id="Path-24" stroke="#979797" stroke-width="3" fill="none" stroke-linecap="round"></path>
                                <path d="M167.392405,8.69265822 L197.888537,0.0956534857" id="Path-24-Copy" stroke="#979797" stroke-width="3" fill="none" stroke-linecap="round"></path>
                                <path d="M3.52405063,125.174278 L199.108861,69.5412658" id="Path-26" stroke="#979797" stroke-width="3" fill="none" stroke-linecap="round"></path>
                                <path d="M3.52405063,137.344 L122.039201,103.633024" id="Path-26-Copy" stroke="#979797" stroke-width="3" fill="none" stroke-linecap="round"></path>
                                <path d="M130.389873,101.51371 L198.112817,82.2502953" id="Path-26-Copy-2" stroke="#979797" stroke-width="3" fill="none" stroke-linecap="round"></path>
                                <polygon id="Path-53" stroke="none" fill="#979797" fill-rule="evenodd" points="0 45.2018227 0 64.3256708 35.2405063 53.894481 35.2405063 34.6917713"></polygon>
                                <polygon id="Rectangle-18" stroke="#979797" stroke-width="3" fill="#FFFFFF" fill-rule="evenodd" stroke-linecap="round" stroke-linejoin="round" points="3.52405063 149.513721 59.9088607 133.866937 59.9088607 161.683443 3.52405063 177.330228"></polygon>
                                <polygon id="Rectangle-18-Copy" stroke="#979797" stroke-width="3" fill="#FFFFFF" fill-rule="evenodd" stroke-linecap="round" stroke-linejoin="round" points="74.0050632 130.389873 128.627848 114.743088 128.627848 142.559595 74.0050632 158.20638"></polygon>
                                <polygon id="Rectangle-18-Copy-2" stroke="#979797" stroke-width="3" fill="#FFFFFF" fill-rule="evenodd" stroke-linecap="round" stroke-linejoin="round" points="140.962025 111.266025 197.346835 95.6192404 197.346835 123.435747 140.962025 139.082532"></polygon>
                            </g>
                        </g>
                    </g>
                    <g id="magnifying-glass" transform="translate(90.566165, 104.225278) rotate(30.000000) translate(-90.566165, -104.225278) translate(39.066165, 13.725278)">
                        <path d="M44.2118761,99.6709537 L60.5987666,99.6709537 L60.5987666,172.061032 C60.5987666,176.583379 56.9212285,180.249466 52.4053213,180.249466 L52.4053213,180.249466 C47.8802065,180.249466 44.2118761,176.57779 44.2118761,172.061032 L44.2118761,99.6709537 Z" id="Rectangle-15" fill="#448F95"></path>
                        <ellipse id="Oval-4" stroke="#64AEB3" stroke-width="8" cx="51.5110317" cy="51.5763821" rx="51.3952474" ry="51.4807163"></ellipse>
                        <ellipse id="Oval-7" fill="#77C2C7" opacity="0.200000003" cx="51.3845003" cy="51.6103425" rx="40.9672262" ry="41.0353535"></ellipse>
                    </g>
                </g>
                <g id="speech-bubbles" transform="translate(336.782942, 128.228662)">
                    <g id="Group-19" transform="translate(0.000000, 0.716626)">
                        <polygon id="bubble" fill="#7ACA72" transform="translate(20.217058, 19.054712) rotate(-90.000000) translate(-20.217058, -19.054712) " points="1.21705754 13.3734899 7.89016629 13.3734899 7.89016629 -0.945288033 39.2170575 -0.945288033 39.2170575 39.054712 8.06552421 39.054712 8.06552421 25.4085146"></polygon>
                        <g id="Group-17" transform="translate(10.000000, 9.000000)" stroke="#FFFFFF" stroke-width="3" stroke-linecap="round" stroke-linejoin="round">
                            <rect id="Rectangle" x="-1.28294246" y="3.5" width="7" height="13"></rect>
                            <polyline id="Path-9" points="6.38821012 5.55209897 8.89980808 5.71583497 12.3949204 0 15.2932133 0 14.1433085 5.57714356 20.2170575 5.57714356 18.6353547 16 6.21705754 15.8365028"></polyline>
                        </g>
                    </g>
                </g>
                <g id="speech-bubbles-copy" transform="translate(296.378902, 115.602400)">
                    <g id="Group-19" transform="translate(0.000000, 0.716626)">
                        <polygon id="bubble" fill="#5EB156" transform="translate(20.621098, 19.680975) rotate(-90.000000) translate(-20.621098, -19.680975) " points="1.62109795 26.3855292 8.29420669 13.9997526 8.29420669 -0.319025406 39.6210979 -0.319025406 39.6210979 39.6809746 8.46956462 39.6809746 8.46956462 26.0347772"></polygon>
                        <g id="Group-3" transform="translate(15.227159, 8.680975)" stroke="#FFFFFF" stroke-width="4" stroke-linecap="round" stroke-linejoin="round">
                            <polyline id="Path-11" points="5.40012479e-13 4.71799522 5.40012479e-13 -2.45137244e-13 11.7858548 -2.45137244e-13 11.7858548 9.65605932 5.3993425 9.65605932 5.3993425 13.0715798"></polyline>
                            <path d="M5.55961888,19 L5.55961888,19" id="Path-12"></path>
                        </g>
                    </g>
                </g>
            </g>
        </g>
    </g>
</svg>