<?xml version="1.0" encoding="UTF-8" standalone="no"?>
<svg width="599px" height="412px" viewBox="0 0 599 412" version="1.1" xmlns="http://www.w3.org/2000/svg" xmlns:xlink="http://www.w3.org/1999/xlink">
    <!-- Generator: Sketch 43.1 (39012) - http://www.bohemiancoding.com/sketch -->
    <title>Illu 2</title>
    <desc>Created with Sketch.</desc>
    <defs>
        <polygon id="path-1" points="0 36 0 139.23759 126 196 272 101 272 0.875078027"></polygon>
        <polygon id="path-3" points="0 5 0 78 84 110 160 65 160 0"></polygon>
        <polygon id="path-5" points="0 10 0 165.192024 64 196 125 146 125 0"></polygon>
        <polygon id="path-7" points="19 13 0 92 48 119 116 65 91 0 48 26"></polygon>
    </defs>
    <g id="Page-1" stroke="none" stroke-width="1" fill="none" fill-rule="evenodd">
        <g id="Artboard" transform="translate(-630.000000, -1552.000000)">
            <g id="Illu-2" transform="translate(630.000000, 1552.000000)">
                <g id="Box-1" transform="translate(104.000000, 133.000000)">
                    <g id="Path-40" transform="translate(0.000000, 41.000000)">
                        <mask id="mask-2" fill="white">
                            <use xlink:href="#path-1"></use>
                        </mask>
                        <use id="Mask" fill="#64AEB3" xlink:href="#path-1"></use>
                        <polygon fill="#77C2C7" mask="url(#mask-2)" points="0 38 0 135 126 193 126 87"></polygon>
                        <path d="M91,165 L109.042684,173.62911" id="Path-28" stroke="#448F95" stroke-width="6" stroke-linecap="round" mask="url(#mask-2)"></path>
                        <path d="M91,153 L114.45549,164.217843" id="Path-28-Copy" stroke="#448F95" stroke-width="6" stroke-linecap="round" mask="url(#mask-2)"></path>
                    </g>
                    <polygon id="Path-38" fill="#77C2C7" points="0 77 126 126 272 42 140 0"></polygon>
                    <polygon id="Path-3" stroke="#448F95" stroke-width="6" stroke-linecap="round" stroke-linejoin="round" points="4.54747351e-13 77 4.54747351e-13 180 126 237 272 142 272 41.8201617 139 0"></polygon>
                    <path d="M126,234 L126,125" id="Path-5" stroke="#448F95" stroke-width="6" stroke-linecap="round" stroke-linejoin="round"></path>
                    <polyline id="Path-6" stroke="#448F95" stroke-width="6" stroke-linecap="round" stroke-linejoin="round" points="1 78 127 126 270 43"></polyline>
                    <polygon id="Path-27" fill="#448F95" points="44 93 188 11 231 29 90 111 90 134 79 123 66 127 56 116 44 120"></polygon>
                </g>
                <g id="Box-2" transform="translate(172.000000, 74.000000)">
                    <g id="Rectangle" transform="translate(0.000000, 30.000000)">
                        <mask id="mask-4" fill="white">
                            <use xlink:href="#path-3"></use>
                        </mask>
                        <use id="Mask" fill="#5EB156" xlink:href="#path-3"></use>
                        <polygon fill="#5EB156" mask="url(#mask-4)" points="0 1 84 37 84 108 0 76"></polygon>
                        <polygon id="Path-29" fill="#71C469" mask="url(#mask-4)" points="54 87.9797619 54 73 77 81.9884354 77 97"></polygon>
                        <polygon id="Path-29-Copy" fill="#71C469" mask="url(#mask-4)" points="64 71.9797619 64 66 77 70.9884354 77 77"></polygon>
                    </g>
                    <polygon id="Path-39" fill="#5EB156" points="0 35 84 63 160 30 78 0"></polygon>
                    <polygon id="Path-31" fill="#71C369" points="58 57 129 19 100 8 28 45"></polygon>
                    <polygon id="Path-7" stroke="#3F7F38" stroke-width="6" stroke-linecap="round" stroke-linejoin="round" points="4.54747351e-13 35 1 107 83 138 160 95 160 30 78 0"></polygon>
                    <polyline id="Path-8" stroke="#3E7F38" stroke-width="6" stroke-linecap="round" stroke-linejoin="round" points="2 36 84 67 159 30"></polyline>
                    <path d="M84,138 L84,68" id="Path-18" stroke="#3F7F38" stroke-width="6"></path>
                    <path d="M44,50 L114,14" id="Path-30" stroke="#3F7F38" stroke-width="6" stroke-linecap="round"></path>
                </g>
                <g id="Box-3" transform="translate(334.000000, 146.000000)">
                    <g id="Rectangle" transform="translate(1.000000, 26.000000)">
                        <mask id="mask-6" fill="white">
                            <use xlink:href="#path-5"></use>
                        </mask>
                        <use id="Mask" fill="#64AEB3" xlink:href="#path-5"></use>
                        <polygon fill="#77C2C7" mask="url(#mask-6)" points="-1 6 64 34 64 196 -1 164"></polygon>
                        <polygon id="Path-34" fill="#77C2C7" mask="url(#mask-6)" points="119 27.0140689 119 12 102 23.0191849 102 38"></polygon>
                    </g>
                    <polygon id="Path-39" fill="#77C2C7" points="1 36 65 61 126 26 63 1"></polygon>
                    <polygon id="Path-27" fill="#448F95" points="21 43 84 6 103 16 43 52 43 78 31 65 21 70"></polygon>
                    <polygon id="Path-22" stroke="#448F95" stroke-width="6" stroke-linecap="round" stroke-linejoin="round" points="4.54747351e-13 36 4.54747351e-13 191 65 222 127 172 127 25.9691813 63 0"></polygon>
                    <polyline id="Path-23" stroke="#448F95" stroke-width="6" stroke-linecap="round" stroke-linejoin="round" points="1 36 65 62 125 26"></polyline>
                    <path d="M65,61 L65,219.003165" id="Path-24" stroke="#448F95" stroke-width="6"></path>
                </g>
                <g id="Paper-bag" transform="translate(249.000000, 265.000000)">
                    <polygon id="Path-41" stroke="#499440" stroke-width="6" fill="#489440" stroke-linecap="round" stroke-linejoin="round" points="19 38 48 51 91 25 62 15"></polygon>
                    <path d="M28,38 C28,38 22.5797531,6 36.2898765,1 C50,-4 52,24 52,24" id="Path-42-Copy" stroke="#499440" stroke-width="6" stroke-linecap="round"></path>
                    <path d="M54,49 C54,49 48.5797531,17 62.2898765,12 C76,7 78,35 78,35" id="Path-42" stroke="#3F7F38" stroke-width="6" stroke-linecap="round"></path>
                    <g id="Path-43" transform="translate(0.000000, 25.000000)">
                        <mask id="mask-8" fill="white">
                            <use xlink:href="#path-7"></use>
                        </mask>
                        <use id="Mask" fill="#5EB156" xlink:href="#path-7"></use>
                        <ellipse id="Oval-4" fill="#71C369" mask="url(#mask-8)" transform="translate(76.025887, 35.926064) rotate(-30.000000) translate(-76.025887, -35.926064) " cx="76.0258873" cy="35.9260644" rx="19" ry="9.27117349"></ellipse>
                        <polygon fill="#5EB156" mask="url(#mask-8)" points="48 25 48 121 -1 93 19 11"></polygon>
                    </g>
                    <polygon id="Path-25" stroke="#3F7F38" stroke-width="6" stroke-linecap="round" stroke-linejoin="round" points="0 117 48 144 116 89 91 25 48 51 19 38"></polygon>
                    <path d="M48,52 L48,142" id="Path-26" stroke="#3F7F38" stroke-width="6" stroke-linecap="round" stroke-linejoin="round"></path>
                </g>
                <g id="Bubble-1" transform="translate(90.000000, 0.000000)">
                    <polyline id="Path-44" stroke="#0D2132" stroke-width="6" stroke-linecap="round" stroke-linejoin="round" stroke-dasharray="4,12" points="50 108 50 155.042534 96.1671002 155.042534"></polyline>
                    <circle id="Oval" fill="#E2E2E2" cx="50" cy="50" r="50"></circle>
                    <g id="startups2" transform="translate(20.000000, 20.000000)" fill-rule="nonzero" fill="#0D2132">
                        <path d="M44,23 C47.86,23 51,19.86 51,16 C51,12.14 47.86,9 44,9 C40.14,9 37,12.14 37,16 C37,19.86 40.14,23 44,23 Z M44,11 C46.757,11 49,13.243 49,16 C49,18.757 46.757,21 44,21 C41.243,21 39,18.757 39,16 C39,13.243 41.243,11 44,11 Z" id="Shape"></path>
                        <path d="M1,60 L1.941,60 C12.007,60 21.618,56.854 29.735,50.901 L32.591,48.806 C32.735,48.7 32.848,48.557 32.919,48.393 L35.337,42.75 L36.165,43.578 L41.09,54.412 C41.226,54.711 41.499,54.924 41.822,54.982 C41.881,54.995 41.941,55 42,55 C42.263,55 42.518,54.896 42.707,54.707 L58.707,38.707 C58.974,38.441 59.067,38.047 58.951,37.689 L54.621,24.445 C58.126,18.139 60,11.017 60,3.603 L60,1 C60,0.448 59.552,0 59,0 L56.853,0 C49.378,0 42.164,1.92 35.793,5.507 L23.336,1.058 C22.982,0.933 22.588,1.014 22.314,1.272 L5.314,17.272 C5.071,17.501 4.959,17.834 5.013,18.164 C5.067,18.493 5.282,18.773 5.586,18.911 L16.42,23.836 L17.248,24.664 L11.605,27.082 C11.441,27.152 11.298,27.266 11.192,27.41 L9.097,30.266 C5.468,35.216 2.888,40.722 1.422,46.547 C0.57,49.422 0.203,52.494 0.068,55.615 C0.029,56.427 0,57.241 0,58.059 L0,58.955 L0,59 C0,59.552 0.448,60 1,60 Z M3.347,47.097 C4.73,42.398 7.396,38.634 12.328,35.959 L17.657,35.071 L18.586,36 L15.293,39.293 L16.707,40.707 L20,37.414 L21.586,39 L16.293,44.293 L17.707,45.707 L23,40.414 L24.929,42.343 L24.045,47.646 C19.91,54.403 12.692,57.792 2.005,57.991 C2.015,57.052 2.048,56.142 2.095,55.246 C2.265,52.476 2.683,49.752 3.347,47.097 Z M18.43,23.016 L22.096,19.51 L30.586,28 L27,31.586 L23.707,28.293 L19.707,24.293 L18.43,23.016 Z M29.586,37 L26,40.586 L19.414,34 L23,30.414 L29.586,37 Z M18,32.586 L13.751,28.337 L18.771,26.186 L21.586,29 L18,32.586 Z M28.552,49.288 C26.473,50.813 24.288,52.138 22.023,53.272 C23.493,51.898 24.774,50.319 25.857,48.514 C25.921,48.406 25.965,48.287 25.986,48.164 L26.667,44.08 L30.469,47.882 L28.552,49.288 Z M31.663,46.249 L27.414,42 L31,38.414 L33.814,41.228 L31.663,46.249 Z M56.859,37.727 L42.313,52.272 L38.197,43.217 L47.405,34.009 C47.95,33.464 48.476,32.904 48.988,32.336 C49.027,32.292 49.064,32.246 49.104,32.202 C50.646,30.475 52.031,28.641 53.26,26.721 L56.859,37.727 Z M58,2 L58,3.603 C58,10.768 56.164,17.646 52.733,23.719 C52.707,23.753 52.676,23.782 52.655,23.82 C51.319,26.176 49.762,28.377 48.017,30.402 C47.926,30.507 47.837,30.614 47.744,30.718 C47.178,31.362 46.596,31.991 45.991,32.596 L42,36.586 L37.707,32.293 L36.293,33.707 L40.586,38 L37,41.586 L35.707,40.293 L31.707,36.293 L28.414,33 L32,29.414 L34.293,31.707 L35.707,30.293 L33.414,28 L35.707,25.707 L34.293,24.293 L32,26.586 L23.541,18.127 L28.512,13.371 C28.524,13.359 28.537,13.349 28.549,13.337 C29.089,12.822 29.646,12.324 30.213,11.839 C30.354,11.719 30.498,11.604 30.64,11.485 C31.115,11.09 31.597,10.704 32.089,10.331 C32.208,10.24 32.328,10.151 32.448,10.061 C33.712,9.125 35.027,8.256 36.392,7.47 C36.411,7.459 36.425,7.442 36.444,7.429 C42.598,3.891 49.598,2 56.853,2 L58,2 Z M23.24,3.147 L33.573,6.837 C31.29,8.311 29.132,10.011 27.13,11.925 L16.798,21.81 L7.771,17.707 L23.24,3.147 Z M10.712,31.448 L12.117,29.532 L15.919,33.334 L11.835,34.015 C11.728,34.033 11.625,34.068 11.529,34.119 C9.81,35.036 8.36,36.086 7.108,37.231 C8.156,35.231 9.355,33.298 10.712,31.448 Z" id="Shape"></path>
                        <rect id="Rectangle-path" transform="translate(13.499954, 48.499446) rotate(-45.000000) translate(-13.499954, -48.499446) " x="11.3784739" y="47.499456" width="4.24295931" height="1.99998082"></rect>
                    </g>
                </g>
                <g id="Bubble-2" transform="translate(0.000000, 124.000000)">
                    <polyline id="Path-44" stroke="#0D2132" stroke-width="6" stroke-linecap="round" stroke-linejoin="round" stroke-dasharray="4,12" points="50 108 50 155.042534 123.1671 155.042534"></polyline>
                    <circle id="Oval" fill="#E2E2E2" cx="50" cy="50" r="50"></circle>
                    <g id="marketing2" transform="translate(17.000000, 19.000000)" stroke="#0D2132" fill-rule="nonzero" stroke-width="0.5" fill="#0D2132">
                        <rect id="Rectangle-path" transform="translate(60.683282, 25.855876) rotate(-179.810974) translate(-60.683282, -25.855876) " x="59.033273" y="25.1058721" width="3.30001796" height="1.50000816"></rect>
                        <rect id="Rectangle-path" transform="translate(58.723830, 20.956670) rotate(45.202572) translate(-58.723830, -20.956670) " x="57.9738325" y="19.3066755" width="1.49999499" height="3.29998898"></rect>
                        <rect id="Rectangle-path" transform="translate(58.642810, 30.756320) rotate(45.178264) translate(-58.642810, -30.756320) " x="56.9928178" y="30.0063236" width="3.29998432" height="1.49999287"></rect>
                        <path d="M63.5,12.2 L49.2,12.2 L49.2,7.3 L54.3,7.3 L54.3,6.6 L54.3,5.2 C54.3,2.7 52.5,0.8 50.1,0.8 L22.6,0.8 L22.6,0.8 C19.9,0.8 17.8,2.9 17.8,5.6 L17.8,12.2 L3.5,12.2 C2,12.2 0.7,13.4 0.7,15 L0.7,52.4 C0.7,53.9 1.9,55.2 3.5,55.2 L25.2,55.2 L21.4,60.9 L17.4,60.9 L17.4,62.4 L49.7,62.4 L49.7,60.9 L45.7,60.9 L41.9,55.2 L63.6,55.2 C65.1,55.2 66.4,54 66.4,52.4 L66.4,14.9 C66.3,13.4 65,12.2 63.5,12.2 Z M54.5,23.4 C55.4,23.7 56.1,24.7 56.1,25.8 C56.1,26.5 55.8,27.1 55.4,27.6 C55.1,27.9 54.8,28.1 54.5,28.2 L54.5,23.4 Z M53,32.5 L51.5,32 L51.5,19.5 L53,19 L53,32.5 Z M50.1,31.6 L36.7,27.3 C36.5,27.2 36.3,27.3 36.1,27.4 L33.5,29.1 L33.5,22.4 L36.1,24.1 C36.3,24.2 36.5,24.3 36.7,24.2 L50.1,20 L50.1,31.6 Z M39.9,29.9 L45.7,31.7 C45.6,33.4 44.1,34.8 42.4,34.7 C41.6,34.7 40.8,34.3 40.2,33.7 C39.6,33.1 39.3,32.3 39.4,31.4 C39.4,30.9 39.6,30.4 39.9,29.9 Z M50.3,2.3 C51.8,2.3 53,3.5 53,5.2 L53,5.9 L27.3,5.9 L27.3,5.6 C27.3,4.3 26.8,3.2 26,2.3 L50.3,2.3 Z M22.5,2.3 C24.3,2.3 25.8,3.8 25.8,5.6 C25.8,5.8 25.7,6.2 25.7,6.5 L25.5,7.3 L26.3,7.4 L47.7,7.4 L47.7,19.3 L36.5,22.8 L33,20.4 C32.8,20.2 32.5,20.2 32.2,20.4 C32,20.5 31.8,20.8 31.8,21.1 L31.8,30.6 C31.8,30.9 31.9,31.1 32.2,31.3 C32.4,31.4 32.7,31.4 33,31.3 L36.5,29 L38.5,29.6 C38.2,30.2 38,30.9 38,31.5 C37.9,32.7 38.4,33.9 39.2,34.8 C40,35.7 41.2,36.2 42.4,36.3 L42.6,36.3 C44.9,36.3 46.9,34.6 47.2,32.3 L47.8,32.5 L47.8,39.7 L19.3,39.7 L19.3,29.1 L23.8,29.1 L23.8,16 L19.3,16 L19.3,5.5 C19.3,3.7 20.7,2.3 22.5,2.3 Z M21.1,17.5 L14.6,23.2 C14.5,23.3 14.3,23.3 14.2,23.2 L7.6,17.4 L21.1,17.4 L21.1,17.5 Z M17.6,22.5 L22.3,18.4 L22.3,26.6 L17.6,22.5 Z M6.3,18.4 L11,22.5 L6.3,26.6 L6.3,18.4 Z M12.1,23.5 L13.2,24.4 C13.5,24.6 13.9,24.8 14.3,24.8 C14.7,24.8 15.1,24.7 15.5,24.4 L16.5,23.5 L21.1,27.6 L7.5,27.6 L12.1,23.5 Z M3.5,13.7 L17.8,13.7 L17.8,16 L4.8,16 L4.8,29.1 L17.8,29.1 L17.8,39.6 L12.9,39.6 L12.9,41.1 L54.1,41.1 L54.1,39.6 L49.2,39.6 L49.2,32.9 L53,34.1 L53,35.3 C53,35.7 53.3,36.1 53.7,36.1 L53.7,36.1 C54.1,36.1 54.4,35.8 54.5,35.4 L54.5,29.8 C55.3,29.6 56,29.3 56.5,28.7 C57.2,27.9 57.6,26.9 57.6,25.9 C57.6,23.9 56.3,22.3 54.5,21.9 L54.5,16.3 C54.5,15.9 54.2,15.5 53.8,15.5 L53.8,15.5 C53.4,15.5 53.1,15.8 53,16.2 L53,17.4 L49.2,18.6 L49.2,13.5 L63.5,13.5 C64.2,13.5 64.8,14.1 64.8,14.8 L64.8,48.8 L2.3,48.8 L2.3,14.8 C2.3,14.2 2.8,13.7 3.5,13.7 Z M43.8,60.7 L23.2,60.7 L27,55 L40,55 L43.8,60.7 Z M63.5,53.6 L3.5,53.6 C2.8,53.6 2.2,53 2.2,52.3 L2.2,50.4 L64.7,50.4 L64.7,52.3 C64.8,53 64.2,53.6 63.5,53.6 Z" id="Shape"></path>
                    </g>
                </g>
                <g id="Bubble-3" transform="translate(329.000000, 202.000000)">
                    <polyline id="Path-44" stroke="#0D2132" stroke-width="6" stroke-linecap="round" stroke-linejoin="round" stroke-dasharray="4,12" points="220 108 220 155.042534 0.167100172 155.042534"></polyline>
                    <circle id="Oval" fill="#E2E2E2" cx="220" cy="50" r="50"></circle>
                    <g id="designer3" transform="translate(193.000000, 17.000000)" fill-rule="nonzero" fill="#0D2132">
                        <path d="M29.697,11.283 C29.308,10.906 28.691,10.906 28.302,11.283 C28.087,11.493 23,16.486 23,21 C23,24.318 24.283,26.257 25.969,27.223 L25.006,35.889 C25.001,35.938 24.999,35.987 25.001,36.037 L25.927,61.038 C25.989,62.699 27.339,64 29,64 C30.661,64 32.011,62.699 32.073,61.038 L32.999,36.037 C33.001,35.987 32.999,35.938 32.994,35.889 L32.031,27.223 C33.717,26.257 35,24.318 35,21 C35,16.486 29.913,11.493 29.697,11.283 Z M29.004,13.447 C29.92,14.457 31.16,16.023 32.016,17.674 L31,19.197 L29.832,17.445 C29.461,16.888 28.539,16.888 28.168,17.445 L27,19.197 L25.977,17.662 C26.881,15.922 28.203,14.332 29.004,13.447 Z M30.998,36.037 L30.075,60.964 C30.053,61.545 29.581,62 29,62 C28.419,62 27.947,61.545 27.925,60.964 L27.002,36.037 L27.905,27.91 C28.269,27.971 28.636,28 29,28 C29.364,28 29.731,27.971 30.095,27.91 L30.998,36.037 Z M29,26 C26.458,26 25,24.178 25,21 C25,20.663 25.041,20.319 25.112,19.971 L26.168,21.555 C26.539,22.112 27.461,22.112 27.832,21.555 L29,19.803 L30.168,21.555 C30.353,21.833 30.666,22 31,22 C31.334,22 31.646,21.833 31.832,21.555 L32.885,19.975 C32.959,20.324 33,20.667 33,21 C33,24.178 31.542,26 29,26 Z" id="Shape"></path>
                        <path d="M15,34 L14,34 C11.243,34 9,31.757 9,29 L11,29 C11.553,29 12,28.553 12,28 L12,22 C12,21.447 11.553,21 11,21 L9.051,21 C9.553,12.425 16.425,5.553 25,5.051 L25,7 C25,7.553 25.447,8 26,8 L32,8 C32.553,8 33,7.553 33,7 L33,5.051 C41.575,5.553 48.447,12.425 48.949,21 L47,21 C46.447,21 46,21.447 46,22 L46,28 C46,28.553 46.447,29 47,29 L53,29 C53.553,29 54,28.553 54,28 L54,22 C54,21.447 53.553,21 53,21 L50.949,21 C50.581,13.983 46.401,7.973 40.434,5 L48.184,5 C48.598,6.161 49.698,7 51,7 C52.654,7 54,5.654 54,4 C54,2.346 52.654,1 51,1 C49.698,1 48.598,1.839 48.184,3 L33,3 L33,1 C33,0.447 32.553,0 32,0 L26,0 C25.447,0 25,0.447 25,1 L25,3 L9.816,3 C9.402,1.839 8.302,1 7,1 C5.346,1 4,2.346 4,4 C4,5.654 5.346,7 7,7 C8.302,7 9.402,6.161 9.816,5 L17.566,5 C11.598,7.973 7.419,13.983 7.051,21 L5,21 C4.447,21 4,21.447 4,22 L4,28 C4,28.553 4.447,29 5,29 L7,29 C7,31.757 4.757,34 2,34 L1,34 C0.694,34 0.405,34.14 0.216,34.379 C0.027,34.618 -0.043,34.932 0.027,35.23 L3.744,51.026 C2.211,51.159 1,52.434 1,54 C1,55.208 1.722,56.246 2.754,56.721 L1.038,62.726 C0.952,63.028 1.013,63.352 1.201,63.603 C1.391,63.853 1.686,64 2,64 L14,64 C14.313,64 14.609,63.853 14.799,63.603 C14.988,63.352 15.048,63.028 14.962,62.726 L13.246,56.721 C14.278,56.246 15,55.208 15,54 C15,52.434 13.789,51.159 12.257,51.026 L15.974,35.23 C16.043,34.932 15.974,34.619 15.785,34.379 C15.595,34.14 15.306,34 15,34 Z M52,27 L48,27 L48,23 L52,23 L52,27 Z M51,3 C51.552,3 52,3.448 52,4 C52,4.552 51.552,5 51,5 C50.448,5 50,4.552 50,4 C50,3.448 50.448,3 51,3 Z M27,2 L31,2 L31,6 L27,6 L27,2 Z M7,5 C6.448,5 6,4.552 6,4 C6,3.448 6.448,3 7,3 C7.552,3 8,3.448 8,4 C8,4.552 7.552,5 7,5 Z M6,27 L6,23 L10,23 L10,27 L6,27 Z M3.326,62 L4.754,57 L11.246,57 L12.674,62 L3.326,62 Z M13,54 C13,54.552 12.552,55 12,55 L4,55 C3.448,55 3,54.552 3,54 C3,53.448 3.448,53 4,53 L5,53 L11,53 L12,53 C12.552,53 13,53.448 13,54 Z M10.208,51 L5.792,51 L2.262,35.995 C4.116,35.927 5.785,35.13 7,33.888 L7,42 L9,42 L9,33.888 C10.215,35.13 11.884,35.927 13.738,35.995 L10.208,51 Z" id="Shape"></path>
                        <path d="M39,40 L39,50 L41,50 L41,41 L50,41 L50,39 L40,39 C39.447,39 39,39.447 39,40 Z" id="Shape"></path>
                        <path d="M55.293,38.293 L38.293,55.293 L39.707,56.707 L43.414,53 L53,53 C53.553,53 54,52.553 54,52 L54,42.414 L56.707,39.707 L55.293,38.293 Z M52,51 L45.414,51 L52,44.414 L52,51 Z" id="Shape"></path>
                    </g>
                </g>
                <g id="Bubble-4" transform="translate(437.000000, 48.000000)">
                    <polyline id="Path-44" stroke="#0D2132" stroke-width="6" stroke-linecap="round" stroke-linejoin="round" stroke-dasharray="4,12" points="50 108 50 171.042534 1.16710017 171.042534"></polyline>
                    <circle id="Oval" fill="#E2E2E2" cx="50" cy="50" r="50"></circle>
                    <g id="developer" transform="translate(20.000000, 20.000000)" fill="#0D2132">
                        <path d="M54,38.678 L54,34 C54,31.243 51.757,29 49,29 L46.489,29 C47.373,28.044 48.135,26.984 48.77,25.834 C49.174,25.94 49.585,26 50,26 C52.757,26 55,23.757 55,21 C55,18.572 53.258,16.547 50.96,16.097 C50.57,7.446 44.659,0.878 36.648,0.083 C36.108,0.028 35.558,0 35,0 C34.439,0 33.886,0.028 33.343,0.083 C25.337,0.882 19.43,7.449 19.04,16.097 C16.742,16.547 15,18.572 15,21 C15,23.757 17.243,26 20,26 C20.415,26 20.826,25.94 21.23,25.834 C21.865,26.983 22.627,28.043 23.511,29 L21,29 C18.243,29 16,31.243 16,34 L16,38.679 C12.974,40.059 10.86,42.811 10.222,46 L1,46 C0.706,46 0.427,46.129 0.237,46.354 C0.047,46.579 -0.034,46.875 0.014,47.165 L2.014,59.165 C2.094,59.646 2.511,60 3,60 L9,60 C9.489,60 9.906,59.646 9.986,59.164 L11.195,51.908 C12.276,53.509 14.005,54.632 15.999,54.92 L15.999,55 C15.999,57.757 18.242,60 20.999,60 L48.999,60 C51.756,60 53.999,57.757 53.999,55 L53.999,54.92 C57.386,54.432 59.999,51.519 59.999,48 C60,43.988 57.645,40.34 54,38.678 Z M8.153,58 L3.847,58 L2.181,48 L9.82,48 L8.153,58 Z M53,21 C53,22.762 51.432,24.189 49.678,23.981 C49.756,23.787 49.817,23.585 49.888,23.387 C49.962,23.182 50.039,22.98 50.105,22.772 C50.264,22.275 50.405,21.769 50.522,21.255 C50.566,21.063 50.598,20.867 50.636,20.672 C50.721,20.235 50.794,19.794 50.848,19.349 C50.873,19.139 50.892,18.928 50.911,18.715 C50.927,18.529 50.955,18.346 50.966,18.159 C52.147,18.562 53,19.684 53,21 Z M21.051,15.838 C21.08,15.399 21.127,14.967 21.188,14.542 C21.196,14.487 21.202,14.432 21.21,14.377 C21.279,13.929 21.364,13.489 21.467,13.058 C21.473,13.034 21.478,13.011 21.483,12.987 C22.713,7.914 26.253,4.039 30.922,2.604 C30.978,2.587 31.036,2.576 31.092,2.559 C31.46,2.451 31.833,2.353 32.215,2.276 C32.384,2.242 32.56,2.224 32.732,2.196 C33.011,2.151 33.288,2.1 33.574,2.071 C34.041,2.026 34.517,2 35,2 C35.497,2 35.987,2.025 36.468,2.074 C36.484,2.076 36.5,2.079 36.516,2.081 C41.768,2.635 45.986,6.05 47.893,10.953 C47.916,11.014 47.941,11.075 47.964,11.137 C48.084,11.457 48.187,11.788 48.287,12.121 C48.342,12.308 48.399,12.494 48.448,12.685 C48.502,12.893 48.546,13.106 48.593,13.318 C48.659,13.627 48.725,13.937 48.774,14.255 C48.79,14.356 48.801,14.46 48.815,14.562 C48.872,14.976 48.92,15.394 48.948,15.821 C48.948,15.828 48.948,15.834 48.949,15.841 C45.65,16.509 41.465,14.919 38.272,11.727 C37.27,10.724 36.407,9.599 35.708,8.381 C35.352,7.76 34.33,7.76 33.974,8.381 C33.275,9.599 32.412,10.724 31.41,11.727 C28.347,14.789 24.291,16.402 21.049,15.902 C21.05,15.881 21.05,15.86 21.051,15.838 Z M20.322,23.981 C18.567,24.189 17,22.762 17,21 C17,19.684 17.853,18.562 19.035,18.159 C19.046,18.346 19.074,18.529 19.09,18.715 C19.109,18.927 19.128,19.139 19.153,19.349 C19.207,19.794 19.28,20.235 19.365,20.672 C19.403,20.867 19.435,21.063 19.479,21.255 C19.596,21.769 19.737,22.275 19.896,22.772 C19.963,22.98 20.039,23.183 20.113,23.387 C20.184,23.585 20.245,23.788 20.322,23.981 Z M22.511,23.978 C22.358,23.649 22.225,23.308 22.095,22.966 C22.02,22.771 21.938,22.581 21.871,22.383 C21.727,21.953 21.609,21.511 21.5,21.066 C21.468,20.934 21.425,20.807 21.396,20.674 C21.285,20.168 21.206,19.652 21.142,19.132 C21.131,19.041 21.11,18.954 21.1,18.863 C21.066,18.55 21.065,18.231 21.049,17.915 C24.882,18.383 29.361,16.604 32.823,13.141 C33.566,12.398 34.241,11.594 34.84,10.741 C35.439,11.595 36.114,12.398 36.858,13.141 C39.973,16.256 43.848,17.997 47.368,17.997 C47.906,17.997 48.435,17.953 48.953,17.87 C48.936,18.201 48.934,18.534 48.899,18.862 C48.889,18.953 48.869,19.04 48.857,19.131 C48.793,19.651 48.714,20.167 48.603,20.673 C48.574,20.806 48.531,20.933 48.499,21.065 C48.39,21.51 48.272,21.952 48.128,22.382 C48.061,22.581 47.978,22.771 47.904,22.965 C47.774,23.307 47.641,23.648 47.488,23.977 C46.573,25.935 45.269,27.653 43.612,28.999 L26.387,28.999 C24.731,27.654 23.426,25.937 22.511,23.978 Z M12,48 C12,45.086 13.542,42.407 16,40.929 L16,52.9 C13.721,52.435 12,50.415 12,48 Z M52,55 C52,56.654 50.654,58 49,58 L21,58 C19.346,58 18,56.654 18,55 L18,54 L18,39.32 L18,34 C18,32.346 19.346,31 21,31 L49,31 C50.654,31 52,32.346 52,34 L52,39.32 L52,54 L52,55 Z M54,52.899 L54,40.929 C56.458,42.408 58,45.086 58,48 C58,50.415 56.279,52.435 54,52.899 Z" id="Shape" fill-rule="nonzero"></path>
                        <text id="&lt;/&gt;" font-family="Gotham-Bold, Gotham" font-size="18" font-weight="bold" letter-spacing="-1.79999995">
                            <tspan x="21.4099999" y="51">&lt;/&gt;</tspan>
                        </text>
                        <path d="M29,20 C27.346,20 26,21.346 26,23 L28,23 C28,22.448 28.449,22 29,22 C29.551,22 30,22.448 30,23 L32,23 C32,21.346 30.654,20 29,20 Z" id="Shape" fill-rule="nonzero"></path>
                        <path d="M41,20 C39.346,20 38,21.346 38,23 L40,23 C40,22.448 40.449,22 41,22 C41.551,22 42,22.448 42,23 L44,23 C44,21.346 42.654,20 41,20 Z" id="Shape" fill-rule="nonzero"></path>
                        <path d="M1,14 L9.764,14 L13.553,15.895 C13.694,15.965 13.847,16 14,16 C14.183,16 14.365,15.95 14.526,15.851 C14.82,15.668 15,15.347 15,15 L15,13 L16,13 C16.552,13 17,12.553 17,12 L17,1 C17,0.447 16.552,0 16,0 L1,0 C0.448,0 0,0.447 0,1 L0,13 C0,13.553 0.448,14 1,14 Z M2,2 L15,2 L15,11 L14,11 C13.448,11 13,11.447 13,12 L13,13.382 L10.447,12.106 C10.309,12.036 10.155,12 10,12 L2,12 L2,2 Z" id="Shape" fill-rule="nonzero"></path>
                        <rect id="Rectangle-path" fill-rule="nonzero" x="4" y="4" width="2" height="2"></rect>
                        <rect id="Rectangle-path" fill-rule="nonzero" x="8" y="4" width="5" height="2"></rect>
                        <rect id="Rectangle-path" fill-rule="nonzero" x="4" y="8" width="9" height="2"></rect>
                    </g>
                </g>
            </g>
        </g>
    </g>
</svg>