<?xml version="1.0" encoding="UTF-8"?>
<svg width="315px" height="238px" viewBox="0 0 315 238" version="1.1" xmlns="http://www.w3.org/2000/svg" xmlns:xlink="http://www.w3.org/1999/xlink">
    <!-- Generator: Sketch 43.2 (39069) - http://www.bohemiancoding.com/sketch -->
    <title>Design Sprint</title>
    <desc>Created with Sketch.</desc>
    <defs>
        <path d="M0.0143166364,0.0307559029 L22.6480615,0.0307559029 L22.6480615,83.3640892 L0.0143166364,83.3640892 L0.0143166364,0.0307559029 Z M11.3311891,103.940221 L0.0143166364,83.3640892 L22.6480615,83.3640892 L11.3311891,103.940221 Z" id="path-1"></path>
    </defs>
    <g id="Page-1" stroke="none" stroke-width="1" fill="none" fill-rule="evenodd">
        <g id="Services" transform="translate(-107.000000, -413.000000)">
            <g id="Design-Sprint" transform="translate(109.000000, 415.000000)">
                <polygon id="Path-45-Copy-4" stroke="#448F95" stroke-width="4" fill="#77C2C7" stroke-linecap="round" stroke-linejoin="round" points="23.3196159 114.658436 0 130.433471 179.698217 233.314129 265.089163 173.986283 244.513032 159.925926 179.698217 205.193416"></polygon>
                <polygon id="Path-45-Copy-2" stroke="#5EB156" stroke-width="4" fill="#FFFFFF" stroke-linecap="round" stroke-linejoin="round" points="39.4375857 53.9588477 1.02880658 80.0219479 180.727023 182.902606 291.838134 106.085048 116.255144 0.46090535"></polygon>
                <polygon id="Path-45-Copy-3" stroke="#5EB156" stroke-width="4" fill="#FFFFFF" stroke-linecap="round" stroke-linejoin="round" points="34.9794239 77.3302275 177.556487 160.411212 256.17284 106.059166 116.507493 21.037037"></polygon>
                <path d="M66.5294925,95.1111111 L145.747599,40.5843621" id="Path-8" stroke="#5EB156" stroke-width="3"></path>
                <g id="Group-14" transform="translate(82.304527, 75.563786)" stroke="#5EB156">
                    <polygon id="Path-15" stroke-width="3" fill="#FFFFFF" stroke-linecap="round" stroke-linejoin="round" points="0.685871056 19.5473251 29.4924554 0 45.9533608 9.25925926 16.1179698 28.8065844"></polygon>
                    <path d="M16.1179698,27.7777778 L30.521262,1.02880658" id="Path-16" stroke-width="2"></path>
                    <path d="M2.74348422,19.5473251 L42.866941,9.25925926" id="Path-17" stroke-width="2"></path>
                </g>
                <g id="Group-14-Copy" transform="translate(118.312757, 50.872428)" stroke="#5EB156">
                    <polygon id="Path-15" stroke-width="3" fill="#FFFFFF" stroke-linecap="round" stroke-linejoin="round" points="0.685871056 19.5473251 29.4924554 0 45.9533608 9.25925926 16.1179698 28.8065844"></polygon>
                    <path d="M16.1179698,27.7777778 L30.521262,1.02880658" id="Path-16" stroke-width="2"></path>
                    <path d="M2.74348422,19.5473251 L42.866941,9.25925926" id="Path-17" stroke-width="2"></path>
                </g>
                <path d="M51.0973937,76.5925926 L69.6159122,64.2469136" id="Path-18" stroke="#5EB156" stroke-width="3" stroke-linecap="round"></path>
                <path d="M111.796982,110.54321 L175.998394,67.7422688" id="Path-18-Copy-4" stroke="#5EB156" stroke-width="3" stroke-linecap="round"></path>
                <path d="M121.056241,115.687243 L163.857182,87.1532821" id="Path-18-Copy-5" stroke="#5EB156" stroke-width="3" stroke-linecap="round"></path>
                <g id="Group-15" transform="translate(130.658436, 108.485597)" stroke="#5EB156" stroke-width="3" stroke-linecap="round">
                    <path d="M0.685871056,12.345679 L17.8062475,0.932094728" id="Path-18-Copy-7"></path>
                    <path d="M8.91632373,17.4897119 L26.0367002,6.07612765" id="Path-18-Copy-8"></path>
                    <path d="M18.175583,22.6337449 L35.2959594,11.2201606" id="Path-18-Copy-9"></path>
                </g>
                <g id="Group-15-Copy" transform="translate(152.263374, 93.053498)" stroke="#5EB156" stroke-width="3" stroke-linecap="round">
                    <path d="M0.685871056,12.345679 L17.8062475,0.932094728" id="Path-18-Copy-7"></path>
                    <path d="M8.91632373,17.4897119 L26.0367002,6.07612765" id="Path-18-Copy-8"></path>
                    <path d="M18.175583,22.6337449 L35.2959594,11.2201606" id="Path-18-Copy-9"></path>
                </g>
                <g id="Group-15-Copy-2" transform="translate(174.897119, 77.621399)" stroke="#5EB156" stroke-width="3" stroke-linecap="round">
                    <path d="M0.685871056,12.345679 L17.8062475,0.932094728" id="Path-18-Copy-7"></path>
                    <path d="M8.91632373,17.4897119 L26.0367002,6.07612765" id="Path-18-Copy-8"></path>
                    <path d="M18.175583,22.6337449 L35.2959594,11.2201606" id="Path-18-Copy-9"></path>
                </g>
                <path d="M169.410151,82.7654321 L183.962471,73.0638855" id="Path-18-Copy-6" stroke="#5EB156" stroke-width="3" stroke-linecap="round"></path>
                <path d="M157.064472,137.292181 L171.616792,127.590634" id="Path-18-Copy-11" stroke="#5EB156" stroke-width="3" stroke-linecap="round"></path>
                <path d="M166.323731,142.436214 L230.525143,99.6352729" id="Path-18-Copy-12" stroke="#5EB156" stroke-width="3" stroke-linecap="round"></path>
                <path d="M176.611797,122.888889 L219.412738,94.3549282" id="Path-18-Copy-10" stroke="#5EB156" stroke-width="3" stroke-linecap="round"></path>
                <path d="M82.9903978,53.9588477 L91.550586,48.2520556" id="Path-18-Copy" stroke="#5EB156" stroke-width="3" stroke-linecap="round"></path>
                <path d="M96.3648834,44.6995885 L104.925072,38.9927963" id="Path-18-Copy-2" stroke="#5EB156" stroke-width="3" stroke-linecap="round"></path>
                <path d="M109.739369,35.4403292 L118.299557,29.7335371" id="Path-18-Copy-3" stroke="#5EB156" stroke-width="3" stroke-linecap="round"></path>
                <g id="pencil" transform="translate(266.007616, 66.503791) rotate(40.000000) translate(-266.007616, -66.503791) translate(254.507616, 5.003791)">
                    <g id="Rectangle-2" transform="translate(-0.000000, 18.518519)">
                        <mask id="mask-2" fill="white">
                            <use xlink:href="#path-1"></use>
                        </mask>
                        <use id="Mask" fill="#64AEB3" xlink:href="#path-1"></use>
                        <path d="M0.0143166364,83.3333333 C0.0143166364,83.3333333 1.98083194,81.3064761 5.14385961,81.3064761 C8.30688728,81.3064761 11.3166991,83.3640892 11.3166991,83.3640892 C11.3166991,83.3640892 14.5299615,81.3064761 17.4895386,81.3064761 C20.4491158,81.3064761 22.6480615,83.3333333 22.6480615,83.3333333 L22.6480615,108.055447 L0.0143166364,108.055447 L0.0143166364,83.3333333 Z" fill="#448F95" mask="url(#mask-2)"></path>
                    </g>
                    <path d="M0.0143166364,4.02132663 C0.0143166364,1.81739527 1.80926736,0.0307559029 4.00867496,0.0307559029 L18.6537032,0.0307559029 C20.8597264,0.0307559029 22.6480615,1.82026952 22.6480615,4.02132663 L22.6480615,17.5204678 L0.0143166364,17.5204678 L0.0143166364,4.02132663 Z" id="Rectangle-4-Copy" fill="#64AEB3"></path>
                    <path d="M0.0143166364,20.5761317 L22.6480615,20.5761317" id="Path-4" stroke="#448F95" stroke-width="6"></path>
                </g>
                <path d="M12.0603567,137.263374 L23.902631,129.064877" id="Path-19" stroke="#448F95" stroke-width="4" stroke-linecap="round"></path>
                <path d="M25.4348422,144.465021 L37.2771166,136.266523" id="Path-19-Copy" stroke="#448F95" stroke-width="4" stroke-linecap="round"></path>
                <path d="M39.8381344,152.695473 L51.6804088,144.496976" id="Path-19-Copy-3" stroke="#448F95" stroke-width="4" stroke-linecap="round"></path>
                <path d="M53.21262,159.897119 L65.0548944,151.698622" id="Path-19-Copy-2" stroke="#448F95" stroke-width="4" stroke-linecap="round"></path>
                <path d="M66.5871056,168.127572 L78.42938,159.929074" id="Path-19-Copy-7" stroke="#448F95" stroke-width="4" stroke-linecap="round"></path>
                <path d="M79.9615912,175.329218 L91.8038656,167.13072" id="Path-19-Copy-6" stroke="#448F95" stroke-width="4" stroke-linecap="round"></path>
                <path d="M94.3648834,183.559671 L106.207158,175.361173" id="Path-19-Copy-5" stroke="#448F95" stroke-width="4" stroke-linecap="round"></path>
                <path d="M107.739369,190.761317 L119.581643,182.562819" id="Path-19-Copy-4" stroke="#448F95" stroke-width="4" stroke-linecap="round"></path>
                <path d="M120.085048,199.020576 L131.927322,190.822078" id="Path-19-Copy-11" stroke="#448F95" stroke-width="4" stroke-linecap="round"></path>
                <path d="M133.459534,207.222222 L145.301808,199.023725" id="Path-19-Copy-10" stroke="#448F95" stroke-width="4" stroke-linecap="round"></path>
                <path d="M147.862826,214.452675 L159.7051,206.254177" id="Path-19-Copy-9" stroke="#448F95" stroke-width="4" stroke-linecap="round"></path>
                <path d="M161.237311,222.654321 L173.079586,214.455823" id="Path-19-Copy-8" stroke="#448F95" stroke-width="4" stroke-linecap="round"></path>
                <path d="M255.858711,179.444444 L244.016436,171.245947" id="Path-20" stroke="#448F95" stroke-width="4" stroke-linecap="round"></path>
                <path d="M245.570645,186.646091 L233.72837,178.447593" id="Path-20-Copy" stroke="#448F95" stroke-width="4" stroke-linecap="round"></path>
                <path d="M234.253772,193.847737 L222.411498,185.649239" id="Path-20-Copy-3" stroke="#448F95" stroke-width="4" stroke-linecap="round"></path>
                <path d="M222.965706,201.049383 L211.123432,192.850885" id="Path-20-Copy-2" stroke="#448F95" stroke-width="4" stroke-linecap="round"></path>
                <path d="M211.648834,209.279835 L199.80656,201.081338" id="Path-20-Copy-5" stroke="#448F95" stroke-width="4" stroke-linecap="round"></path>
                <path d="M200.360768,218.481481 L188.518494,210.282984" id="Path-20-Copy-4" stroke="#448F95" stroke-width="4" stroke-linecap="round"></path>
            </g>
        </g>
    </g>
</svg>