<?xml version="1.0" encoding="utf-8"?>
<!-- Generator: Adobe Illustrator 21.0.2, SVG Export Plug-In . SVG Version: 6.00 Build 0)  -->
<svg version="1.1" id="Layer_1" xmlns="http://www.w3.org/2000/svg" xmlns:xlink="http://www.w3.org/1999/xlink" x="0px" y="0px"
	 viewBox="0 0 288 192" style="enable-background:new 0 0 288 192;" xml:space="preserve">
<style type="text/css">
	.st0{fill:#DE2910;}
	.st1{fill:#FFFFFF;}
</style>
<path class="st0" d="M0,0h288v192H0V0z"/>
<path class="st1" d="M144,96L144,96C144,96,144,96,144,96L144,96z M153.7,55.5c4.2,6.5-0.4,16.9-6,19.4c-8.5,3.8-10.8,13.6-5.2,19.6
	c-3.3-2.3-5.8-6.1-7.1-10.6c-1.6-6-0.7-12.4,2.6-17.6l-0.7-0.4c-3.4,5.4-4.4,12.1-2.7,18.3c1.2,4.4,3.6,8.1,6.7,10.6
	c-30.2-15.4-15.2-56.8,16.1-54.7C150.9,43.4,150,49.7,153.7,55.5z M145.7,64.7l-2.2-2.7l1.5-3.2l-3.3,1.3l-2.6-2.4l0.2,3.5l-3.1,1.7
	l3.4,0.9l0.7,3.5l1.9-3L145.7,64.7z M201.3,91.5c-5.2-5.2-11.4-4.1-15.8,1.2c-4.9,6-16.2,4.9-20.4,0.3c-6.3-6.9-16.3-6-20.3,1.1
	c1.2-3.8,4-7.5,7.9-10c5.2-3.4,11.6-4.5,17.5-3l0.2-0.8c-6.2-1.6-12.8-0.4-18.2,3.1c-3.8,2.5-6.6,5.9-8,9.7
	C149.7,59.6,193.7,61,201.3,91.5z M179.7,85.4l-2.2-2.7l1.5-3.2l-3.3,1.3l-2.6-2.4l0.2,3.5l-3.1,1.7l3.4,0.9l0.7,3.5l1.9-3
	L179.7,85.4z M166,149.2c3.3-6.5,0.4-12.2-6-14.6c-7.2-2.8-9.6-13.9-6.6-19.3c4.6-8.1,0.7-17.3-7.2-19c4,0,8.3,1.5,11.9,4.4
	c4.8,3.9,7.8,9.6,8.3,15.8l0.8-0.1c-0.4-6.4-3.6-12.3-8.6-16.4c-3.6-2.9-7.7-4.4-11.7-4.6C180.4,90.1,192.6,132.5,166,149.2z
	 M170.5,124.1l-2.2-2.7l1.5-3.2l-3.3,1.3l-2.6-2.4l0.2,3.5l-3.1,1.7l3.4,0.9l0.7,3.5l1.9-3L170.5,124.1z M144,96
	C144,96,144,96,144,96C144,96,144,96,144,96L144,96z M100.2,133.3c7.2,1.1,11.7-3.4,12.1-10.3c0.4-7.7,10.3-13.5,16.3-12.2
	c9.1,1.9,16.7-4.6,15.8-12.7c1.2,3.8,1.1,8.4-0.5,12.7c-2.2,5.8-6.7,10.4-12.4,12.7l0.3,0.8c5.9-2.4,10.6-7.2,12.9-13.2
	c1.6-4.3,1.8-8.7,0.8-12.5C160.8,128.8,124.3,153.5,100.2,133.3z M130.9,127.4l-2.2-2.7l1.5-3.2l-3.3,1.3l-2.6-2.4l0.2,3.5l-3.1,1.7
	l3.4,0.9l0.7,3.5l1.9-3L130.9,127.4z M142,98.1c-23.9,24-58.7-3.1-47-32.2c1.2,7.2,6.8,10.1,13.5,8.3c7.5-2,16,5.6,16.6,11.7
	c1,9.3,9.6,14.4,17,11.1c-3.2,2.4-7.6,3.6-12.2,3.4c-6.2-0.3-12-3.2-16-7.9l-0.6,0.5c4.1,4.9,10.1,7.9,16.6,8.2
	C134.4,101.5,138.7,100.4,142,98.1z M112,90.2l3.5,0.4l-2.2-2.7l1.5-3.2l-3.3,1.3l-2.6-2.4l0.2,3.5l-3.1,1.7l3.4,0.9l0.7,3.5
	L112,90.2z"/>
</svg>
