<?xml version="1.0" encoding="utf-8"?>
<!-- Generator: Adobe Illustrator 21.0.2, SVG Export Plug-In . SVG Version: 6.00 Build 0)  -->
<svg version="1.1" id="Layer_1" xmlns="http://www.w3.org/2000/svg" xmlns:xlink="http://www.w3.org/1999/xlink" x="0px" y="0px"
	 viewBox="0 0 288 192" style="enable-background:new 0 0 288 192;" xml:space="preserve">
<style type="text/css">
	.st0{fill:#CC0001;}
	.st1{fill:#010066;}
	.st2{fill:#FFCC00;}
</style>
<path class="st0" d="M0,82.3h288V96H0V82.3z"/>
<path class="st0" d="M0,54.9h288v13.7H0V54.9z"/>
<path class="st0" d="M0,27.4h288v13.7H0V27.4z"/>
<path class="st0" d="M0,0h288v13.7H0V0z"/>
<path class="st0" d="M0,109.7h288v13.7H0V109.7z"/>
<path class="st0" d="M0,164.6h288v13.7H0V164.6z"/>
<path class="st0" d="M0,137.1h288v13.7H0V137.1z"/>
<path class="st1" d="M0,0h192v109.7H0V0z"/>
<path class="st2" d="M79,13.7c-22.8,0-41.3,18.4-41.3,41.1S56.2,96,79,96c8.2,0,15.9-2.4,22.3-6.6c-3.8,1.3-7.8,2-12,2
	c-20.2,0-36.6-16.3-36.6-36.5s16.4-36.5,36.6-36.5c4.5,0,8.7,0.8,12.7,2.3C95.5,16.3,87.5,13.7,79,13.7z"/>
<path class="st2" d="M147.5,76.3l-17.4-9.1l5.1,18.6l-11.6-15.5L120,89.2l-3.6-18.9l-11.7,15.5l5.2-18.6l-17.4,9l12.9-14.5
	l-19.7,0.8l18.1-7.6l-18.1-7.7l19.7,0.8L92.5,33.4l17.4,9.1l-5.1-18.6l11.6,15.5l3.6-18.9l3.6,18.9L135.3,24l-5.2,18.6l17.4-9
	L134.6,48l19.7-0.8l-18.1,7.6l18.1,7.7l-19.7-0.8L147.5,76.3z"/>
</svg>
