<?xml version="1.0" encoding="utf-8"?>
<!-- Generator: Adobe Illustrator 21.0.2, SVG Export Plug-In . SVG Version: 6.00 Build 0)  -->
<svg version="1.1" id="Layer_1" xmlns="http://www.w3.org/2000/svg" xmlns:xlink="http://www.w3.org/1999/xlink" x="0px" y="0px"
	 viewBox="0 0 288 192" style="enable-background:new 0 0 288 192;" xml:space="preserve">
<style type="text/css">
	.st0{fill:#FCD116;}
	.st1{fill:#CE1126;}
	.st2{fill:#0038A8;}
</style>
<path class="st0" d="M78.9,97.3c0,0.4-0.1,0.8-0.1,1.3l17.2,2.3l-2,2l-15.4-3.1c-0.5,2.5-1.5,4.9-2.9,6.9l13.1,8.7v2.9L75,107.7
	c-0.3,0.3-0.5,0.7-0.8,1l14.2,12.5v3.5h-3.5l-12.5-14.2c-0.3,0.3-0.6,0.5-1,0.8L82,125h-2.9L70.4,112c-2.1,1.4-4.4,2.4-6.9,2.9
	l3.1,15.4l-2,2L62.2,115c-0.4,0.1-0.8,0.1-1.3,0.1l1.2,18.9l-2.5,2.5l-2.5-2.5l1.2-18.9c-0.4,0-0.8-0.1-1.3-0.1L55,132.3l-2-2
	l3.1-15.4c-2.5-0.5-4.9-1.5-6.9-2.9L40.3,125h-2.9L48,111.2c-0.3-0.3-0.7-0.5-1-0.8l-12.5,14.2h-3.5v-3.5l14.2-12.5
	c-0.3-0.3-0.5-0.6-0.8-1l-13.8,10.6v-2.9l13.1-8.7c-1.4-2.1-2.4-4.4-2.9-6.9l-15.4,3.1l-2-2l17.2-2.3c-0.1-0.4-0.1-0.8-0.1-1.3
	l-18.9,1.2L19.2,96l2.5-2.5l18.9,1.2c0-0.4,0.1-0.8,0.1-1.3l-17.2-2.3l2-2l15.4,3.1c0.5-2.5,1.5-4.9,2.9-6.9l-13.1-8.7v-2.9
	l13.8,10.6c0.3-0.3,0.5-0.7,0.8-1L31.1,70.9v-3.5h3.5l12.5,14.2c0.3-0.3,0.6-0.5,1-0.8L37.5,67h2.9L49.1,80c2.1-1.4,4.4-2.4,6.9-2.9
	l-3.1-15.4l2-2L57.2,77c0.4-0.1,0.8-0.1,1.3-0.1L57.2,58l2.5-2.5l2.5,2.5L61,76.8c0.4,0,0.8,0.1,1.3,0.1l2.3-17.2l2,2l-3.1,15.4
	c2.5,0.5,4.9,1.5,6.9,2.9L79.1,67H82L71.4,80.8c0.3,0.3,0.7,0.5,1,0.8l12.5-14.2h3.5v3.5L74.2,83.3c0.3,0.3,0.5,0.6,0.8,1l13.8-10.6
	v2.9l-13.1,8.7c1.4,2.1,2.4,4.4,2.9,6.9L94,89.2l2,2l-17.2,2.3c0.1,0.4,0.1,0.8,0.1,1.3l18.9-1.2l2.5,2.5l-2.5,2.5L78.9,97.3z"/>
<path class="st0" d="M147.1,96l-7.2,2.5l-0.2,7.6l-4.6-6.1l-7.3,2.2l4.4-6.3l-4.4-6.3l7.3,2.2l4.6-6.1l0.2,7.6L147.1,96z"/>
<path class="st0" d="M19.1,167l3,7l-6.7-3.7l-5.8,5l1.4-7.5l-6.5-4l7.6-1l1.7-7.4l3.2,6.9l7.6-0.6L19.1,167z"/>
<path class="st0" d="M24.7,30.2l-7.6-0.6l-3.2,6.9L12.1,29l-7.6-1l6.5-4l-1.4-7.5l5.8,5l6.7-3.7l-3,7L24.7,30.2z"/>
<path class="st1" d="M288,96v96H0l166.3-96H288z"/>
<path class="st2" d="M288,0v96H166.3L0,0H288z"/>
</svg>
