<?xml version="1.0" encoding="utf-8"?>
<!-- Generator: Adobe Illustrator 21.0.2, SVG Export Plug-In . SVG Version: 6.00 Build 0)  -->
<svg version="1.1" id="Layer_1" xmlns="http://www.w3.org/2000/svg" xmlns:xlink="http://www.w3.org/1999/xlink" x="0px" y="0px"
	 viewBox="0 0 288 192" style="enable-background:new 0 0 288 192;" xml:space="preserve">
<style type="text/css">
	.st0{fill:#FFFFFF;}
	.st1{fill:#ED2939;}
</style>
<path class="st0" d="M0,96h288v96H0V96z"/>
<path class="st1" d="M0,0v96h288V0H0z M62.7,84.1c-19.9,0-36.1-16.2-36.1-36.1s16.2-36.1,36.1-36.1c4.2,0,8.2,0.7,11.9,2
	C56.4,14.7,41.9,29.6,41.9,48s14.5,33.3,32.7,34.1C70.9,83.4,66.9,84.1,62.7,84.1z M67.1,48.9l-4.9-3.8l-4.9,3.8l1.9-6.1l-4.9-3.7
	l6.1,0l1.9-6.1l1.9,6.1l6.1,0l-4.9,3.7L67.1,48.9z M72.5,65.7l1.9,6.1L69.4,68l-4.9,3.8l1.9-6.1l-4.9-3.7l6.1,0l1.9-6.1l1.9,6.1
	l6.1,0L72.5,65.7z M76.6,34.6l1.9-6.1l-4.9-3.7l6.1,0l1.9-6.1l1.9,6.1l6.1,0l-4.9,3.7l1.9,6.1l-4.9-3.8L76.6,34.6z M98.4,71.7
	L93.5,68l-4.9,3.8l1.9-6.1l-4.9-3.7l6.1,0l1.9-6.1l1.9,6.1l6.1,0l-4.9,3.7L98.4,71.7z M105.6,48.9l-4.9-3.8l-4.9,3.8l1.9-6.1
	l-4.9-3.7l6.1,0l1.9-6.1l1.9,6.1l6.1,0l-4.9,3.7L105.6,48.9z"/>
</svg>
